<svg width="404" height="274" viewBox="0 0 404 274" fill="none" xmlns="http://www.w3.org/2000/svg">
<g filter="url(#filter0_d_101_7)">
<g clip-path="url(#clip0_101_7)">
<rect x="2" width="400" height="270" rx="8" fill="#F0F0F1"/>
<rect x="2" width="400" height="270" rx="8" fill="white"/>
<g opacity="0.2">
<rect x="104" y="77" width="196" height="40" rx="4" fill="black"/>
<path d="M166.902 101L170.209 91.8403H171.746L175.053 101H173.555L172.729 98.5244H169.226L168.394 101H166.902ZM170.92 93.4463L169.606 97.3818H172.349L171.028 93.4463H170.92ZM178.62 101.114C176.887 101.114 175.764 99.7241 175.764 97.5596V97.5469C175.764 95.3633 176.868 93.9858 178.62 93.9858C179.566 93.9858 180.372 94.4556 180.74 95.1982H180.848V91.4023H182.219V101H180.848V99.9146H180.74C180.34 100.67 179.585 101.114 178.62 101.114ZM179.014 99.9399C180.163 99.9399 180.867 99.0322 180.867 97.5596V97.5469C180.867 96.0742 180.156 95.1665 179.014 95.1665C177.858 95.1665 177.167 96.0679 177.167 97.5469V97.5596C177.167 99.0386 177.858 99.9399 179.014 99.9399ZM186.783 101.114C185.05 101.114 183.927 99.7241 183.927 97.5596V97.5469C183.927 95.3633 185.031 93.9858 186.783 93.9858C187.729 93.9858 188.535 94.4556 188.903 95.1982H189.011V91.4023H190.382V101H189.011V99.9146H188.903C188.503 100.67 187.748 101.114 186.783 101.114ZM187.177 99.9399C188.326 99.9399 189.03 99.0322 189.03 97.5596V97.5469C189.03 96.0742 188.319 95.1665 187.177 95.1665C186.021 95.1665 185.33 96.0679 185.33 97.5469V97.5596C185.33 99.0386 186.021 99.9399 187.177 99.9399ZM198.59 101.044C197.073 101.044 196.451 100.511 196.451 99.1846V95.1919H195.372V94.1064H196.451V92.3672H197.854V94.1064H199.333V95.1919H197.854V98.8545C197.854 99.5972 198.133 99.9019 198.812 99.9019C199.021 99.9019 199.142 99.8955 199.333 99.8765V100.975C199.11 101.013 198.856 101.044 198.59 101.044ZM203.782 101.133C201.757 101.133 200.52 99.7812 200.52 97.5596V97.5469C200.52 95.3315 201.764 93.9731 203.782 93.9731C205.794 93.9731 207.039 95.3252 207.039 97.5469V97.5596C207.039 99.7812 205.801 101.133 203.782 101.133ZM203.782 99.9844C204.963 99.9844 205.636 99.083 205.636 97.5596V97.5469C205.636 96.0171 204.963 95.1221 203.782 95.1221C202.595 95.1221 201.929 96.0171 201.929 97.5469V97.5596C201.929 99.0894 202.595 99.9844 203.782 99.9844ZM216.154 101.222C213.608 101.222 212.021 99.3813 212.021 96.4297V96.417C212.021 93.459 213.602 91.6182 216.147 91.6182C218.166 91.6182 219.715 92.894 219.956 94.7158L219.95 94.7476H218.541V94.7285C218.274 93.605 217.354 92.875 216.147 92.875C214.503 92.875 213.475 94.2397 213.475 96.417V96.4297C213.475 98.6006 214.503 99.9653 216.154 99.9653C217.366 99.9653 218.274 99.3179 218.534 98.2832L218.547 98.2578H219.956V98.2959C219.689 100.054 218.198 101.222 216.154 101.222ZM223.562 101.114C222.248 101.114 221.276 100.314 221.276 99.064V99.0513C221.276 97.8198 222.203 97.1025 223.847 97.001L225.713 96.8931V96.2837C225.713 95.5283 225.237 95.1094 224.304 95.1094C223.542 95.1094 223.041 95.3887 222.876 95.8774L222.87 95.9028H221.543L221.549 95.8584C221.714 94.7285 222.8 93.9731 224.368 93.9731C226.101 93.9731 227.078 94.8364 227.078 96.2837V101H225.713V100.022H225.605C225.199 100.721 224.476 101.114 223.562 101.114ZM222.647 99.0068C222.647 99.6416 223.187 100.016 223.93 100.016C224.958 100.016 225.713 99.3433 225.713 98.4546V97.8643L224.031 97.9722C223.079 98.0293 222.647 98.3721 222.647 98.9941V99.0068ZM229.021 101V94.1064H230.398V95.1475H230.5C230.747 94.4175 231.388 93.9858 232.309 93.9858C232.531 93.9858 232.772 94.0176 232.912 94.0493V95.3188C232.664 95.2681 232.429 95.2363 232.169 95.2363C231.115 95.2363 230.398 95.8838 230.398 96.8804V101H229.021ZM237.184 101.044C235.667 101.044 235.044 100.511 235.044 99.1846V95.1919H233.965V94.1064H235.044V92.3672H236.447V94.1064H237.926V95.1919H236.447V98.8545C236.447 99.5972 236.727 99.9019 237.406 99.9019C237.615 99.9019 237.736 99.8955 237.926 99.8765V100.975C237.704 101.013 237.45 101.044 237.184 101.044Z" fill="white"/>
</g>
<rect x="104" y="153" width="196" height="40" rx="4" fill="black"/>
<rect x="145" y="171" width="113" height="3" rx="1.5" fill="white"/>
<rect x="1" width="401" height="19" fill="#E0E0E0"/>
<path d="M311.016 96.5001C310.464 96.4913 310.009 96.9319 310 97.4841C309.991 98.0363 310.432 98.4911 310.984 98.4998L311.016 96.5001ZM310.271 173.316C309.893 173.718 309.913 174.351 310.316 174.729L316.878 180.888C317.281 181.266 317.914 181.246 318.292 180.843C318.67 180.44 318.65 179.808 318.247 179.43L312.413 173.955L317.888 168.122C318.266 167.719 318.246 167.086 317.843 166.708C317.44 166.33 316.808 166.35 316.43 166.753L310.271 173.316ZM311 97.5C310.984 98.4998 310.984 98.4998 310.983 98.4998C310.983 98.4998 310.983 98.4998 310.983 98.4998C310.983 98.4998 310.984 98.4999 310.985 98.4999C310.987 98.4999 310.992 98.5 310.997 98.5002C311.009 98.5005 311.029 98.501 311.055 98.5019C311.108 98.5038 311.19 98.5072 311.298 98.5132C311.515 98.5252 311.838 98.5478 312.253 98.5897C313.083 98.6734 314.277 98.8342 315.712 99.1418C318.587 99.7579 322.412 100.958 326.228 103.291C333.8 107.918 341.5 117.092 341.5 135.5L343.5 135.5C343.5 116.408 335.449 106.582 327.271 101.584C323.213 99.1042 319.163 97.8358 316.131 97.1862C314.614 96.8611 313.347 96.6899 312.454 96.5998C312.007 96.5547 311.654 96.5299 311.409 96.5163C311.287 96.5095 311.192 96.5055 311.125 96.5032C311.092 96.502 311.066 96.5013 311.048 96.5008C311.039 96.5006 311.032 96.5004 311.026 96.5003C311.024 96.5002 311.021 96.5002 311.02 96.5002C311.019 96.5002 311.018 96.5001 311.017 96.5001C311.017 96.5001 311.016 96.5001 311 97.5ZM341.5 135.5C341.5 153.909 333.799 163.213 326.219 167.965C322.4 170.36 318.573 171.621 315.698 172.283C314.261 172.614 313.068 172.794 312.238 172.891C311.823 172.939 311.499 172.967 311.282 172.982C311.174 172.99 311.092 172.995 311.039 172.997C311.013 172.999 310.994 172.999 310.982 173C310.976 173 310.972 173 310.969 173C310.968 173 310.968 173.001 310.967 173.001C310.967 173.001 310.967 173.001 310.967 173.001C310.968 173.001 310.968 173 311 174C311.032 174.999 311.032 174.999 311.033 174.999C311.034 174.999 311.035 174.999 311.035 174.999C311.037 174.999 311.039 174.999 311.042 174.999C311.048 174.999 311.055 174.999 311.064 174.998C311.082 174.998 311.108 174.996 311.141 174.995C311.207 174.991 311.303 174.986 311.425 174.977C311.67 174.96 312.023 174.929 312.469 174.877C313.362 174.773 314.629 174.581 316.146 174.232C319.177 173.535 323.225 172.203 327.281 169.66C335.451 164.537 343.5 154.591 343.5 135.5L341.5 135.5Z" fill="black"/>
</g>
<rect x="2.5" y="0.5" width="399" height="269" rx="7.5" stroke="#E0E0E0"/>
</g>
<defs>
<filter id="filter0_d_101_7" x="0" y="0" width="404" height="274" filterUnits="userSpaceOnUse" color-interpolation-filters="sRGB">
<feFlood flood-opacity="0" result="BackgroundImageFix"/>
<feColorMatrix in="SourceAlpha" type="matrix" values="0 0 0 0 0 0 0 0 0 0 0 0 0 0 0 0 0 0 127 0" result="hardAlpha"/>
<feOffset dy="2"/>
<feGaussianBlur stdDeviation="1"/>
<feComposite in2="hardAlpha" operator="out"/>
<feColorMatrix type="matrix" values="0 0 0 0 0 0 0 0 0 0 0 0 0 0 0 0 0 0 0.04 0"/>
<feBlend mode="normal" in2="BackgroundImageFix" result="effect1_dropShadow_101_7"/>
<feBlend mode="normal" in="SourceGraphic" in2="effect1_dropShadow_101_7" result="shape"/>
</filter>
<clipPath id="clip0_101_7">
<rect x="2" width="400" height="270" rx="8" fill="white"/>
</clipPath>
</defs>
</svg>
