<svg width="404" height="274" viewBox="0 0 404 274" fill="none" xmlns="http://www.w3.org/2000/svg">
<g filter="url(#filter0_d_101_316)">
<g clip-path="url(#clip0_101_316)">
<rect x="2" width="400" height="270" rx="8" fill="#F0F0F1"/>
<rect x="2" width="400" height="270" rx="8" fill="white"/>
<g opacity="0.5">
<rect x="81" y="124" width="30" height="3" rx="1.5" fill="#1D2327" fill-opacity="0.3"/>
<rect x="126" y="162" width="24" height="3" rx="1.5" fill="#1D2327" fill-opacity="0.3"/>
<rect x="299" y="162" width="11" height="3" rx="1.5" fill="#1D2327" fill-opacity="0.3"/>
<rect x="174" y="124" width="20" height="3" rx="1.5" fill="#1D2327" fill-opacity="0.3"/>
<rect x="239" y="124" width="14" height="3" rx="1.5" fill="#1D2327" fill-opacity="0.3"/>
<rect x="299" y="124" width="24" height="3" rx="1.5" fill="#1D2327" fill-opacity="0.3"/>
<rect x="75" y="133" width="254" height="1" rx="0.5" fill="#ECECEC"/>
<rect x="75" y="193" width="254" height="1" rx="0.5" fill="#ECECEC"/>
<rect x="87" y="150" width="27" height="27" fill="#ECECEC"/>
<path d="M106.454 167.291L103.454 160.791C103.38 160.631 103.228 160.522 103.053 160.503C102.876 160.485 102.706 160.559 102.6 160.7L99.9 164.3L98.3 163.1C98.181 163.011 98.029 162.979 97.885 163.013C97.7405 163.047 97.619 163.144 97.5525 163.276L95.5525 167.276C95.475 167.431 95.4835 167.615 95.5745 167.763C95.6655 167.91 95.8265 168 96 168H106C106.171 168 106.33 167.913 106.421 167.77C106.513 167.626 106.526 167.446 106.454 167.291Z" fill="#BBBDBE"/>
<path d="M99 161C99.8284 161 100.5 160.328 100.5 159.5C100.5 158.672 99.8284 158 99 158C98.1716 158 97.5 158.672 97.5 159.5C97.5 160.328 98.1716 161 99 161Z" fill="#BBBDBE"/>
<rect x="188" y="148" width="24" height="3" rx="1.5" fill="#1D2327" fill-opacity="0.3"/>
<circle cx="179" cy="149" r="3" fill="#BBBDBE"/>
<circle cx="179" cy="149" r="4.5" stroke="#BBBDBE"/>
<rect x="188" y="162" width="24" height="3" rx="1.5" fill="#1D2327" fill-opacity="0.3"/>
<circle cx="179" cy="163" r="4.5" stroke="#BBBDBE"/>
<rect x="188" y="176" width="24" height="3" rx="1.5" fill="#1D2327" fill-opacity="0.3"/>
<circle cx="179" cy="177" r="4.5" stroke="#BBBDBE"/>
<rect x="238.5" y="155.5" width="41" height="16" rx="1.5" fill="white" stroke="#ECECEC"/>
<path d="M243 163.5H249" stroke="#BBBDBE" stroke-linecap="round"/>
<path fill-rule="evenodd" clip-rule="evenodd" d="M271.5 166.5C271.5 166.776 271.724 167 272 167C272.276 167 272.5 166.776 272.5 166.5V164H275C275.276 164 275.5 163.776 275.5 163.5C275.5 163.224 275.276 163 275 163H272.5V160.5C272.5 160.224 272.276 160 272 160C271.724 160 271.5 160.224 271.5 160.5V163H269C268.724 163 268.5 163.224 268.5 163.5C268.5 163.776 268.724 164 269 164H271.5V166.5Z" fill="#BBBDBE"/>
</g>
<rect x="75.5" y="89.5" width="253" height="18" rx="1.5" fill="white" stroke="black"/>
<rect x="298" y="94" width="26" height="9" rx="2" fill="#808080"/>
<rect x="83" y="97" width="140" height="3" rx="1.5" fill="#808080"/>
<path d="M79.5293 74.2051C77.1797 74.2051 75.7148 72.5059 75.7148 69.7812V69.7695C75.7148 67.0391 77.1738 65.3398 79.5234 65.3398C81.3867 65.3398 82.8164 66.5176 83.0391 68.1992L83.0332 68.2285H81.7324V68.2109C81.4863 67.1738 80.6367 66.5 79.5234 66.5C78.0059 66.5 77.0566 67.7598 77.0566 69.7695V69.7812C77.0566 71.7852 78.0059 73.0449 79.5293 73.0449C80.6484 73.0449 81.4863 72.4473 81.7266 71.4922L81.7383 71.4688H83.0391V71.5039C82.793 73.127 81.416 74.2051 79.5293 74.2051ZM86.3672 74.1055C85.1543 74.1055 84.2578 73.3672 84.2578 72.2129V72.2012C84.2578 71.0645 85.1133 70.4023 86.6309 70.3086L88.3535 70.209V69.6465C88.3535 68.9492 87.9141 68.5625 87.0527 68.5625C86.3496 68.5625 85.8867 68.8203 85.7344 69.2715L85.7285 69.2949H84.5039L84.5098 69.2539C84.6621 68.2109 85.6641 67.5137 87.1113 67.5137C88.7109 67.5137 89.6133 68.3105 89.6133 69.6465V74H88.3535V73.0977H88.2539C87.8789 73.7422 87.2109 74.1055 86.3672 74.1055ZM85.5234 72.1602C85.5234 72.7461 86.0215 73.0918 86.707 73.0918C87.6562 73.0918 88.3535 72.4707 88.3535 71.6504V71.1055L86.8008 71.2051C85.9219 71.2578 85.5234 71.5742 85.5234 72.1484V72.1602ZM91.4062 74V67.6367H92.6777V68.5977H92.7715C93 67.9238 93.5918 67.5254 94.4414 67.5254C94.6465 67.5254 94.8691 67.5547 94.998 67.584V68.7559C94.7695 68.709 94.5527 68.6797 94.3125 68.6797C93.3398 68.6797 92.6777 69.2773 92.6777 70.1973V74H91.4062ZM98.9414 74.041C97.541 74.041 96.9668 73.5488 96.9668 72.3242V68.6387H95.9707V67.6367H96.9668V66.0312H98.2617V67.6367H99.627V68.6387H98.2617V72.0195C98.2617 72.7051 98.5195 72.9863 99.1465 72.9863C99.3398 72.9863 99.4512 72.9805 99.627 72.9629V73.9766C99.4219 74.0117 99.1875 74.041 98.9414 74.041ZM107.396 74.2051C105.486 74.2051 104.262 73.2383 104.145 71.8145L104.139 71.7383H105.428L105.434 71.8027C105.504 72.5703 106.318 73.0625 107.449 73.0625C108.527 73.0625 109.295 72.5234 109.295 71.7383V71.7324C109.295 71.082 108.838 70.6602 107.719 70.4199L106.793 70.2207C105.076 69.8574 104.338 69.0605 104.338 67.8125V67.8066C104.344 66.3477 105.609 65.3398 107.402 65.3398C109.195 65.3398 110.367 66.3535 110.461 67.666L110.467 67.748H109.195L109.184 67.6719C109.072 66.9805 108.41 66.4766 107.385 66.4824C106.395 66.4824 105.662 66.9453 105.662 67.7422V67.748C105.662 68.375 106.107 68.7852 107.203 69.0195L108.123 69.2246C109.898 69.6055 110.625 70.3203 110.625 71.5742V71.5801C110.625 73.1973 109.365 74.2051 107.396 74.2051ZM114.328 74.123C112.893 74.123 112.148 73.2617 112.148 71.7559V67.6367H113.42V71.457C113.42 72.5117 113.807 73.0332 114.738 73.0332C115.758 73.0332 116.303 72.3945 116.303 71.3691V67.6367H117.568V74H116.303V73.0391H116.203C115.898 73.7246 115.254 74.123 114.328 74.123ZM119.402 74V67.6367H120.674V68.6152H120.768C121.049 67.918 121.67 67.5137 122.502 67.5137C123.369 67.5137 123.984 67.9648 124.266 68.6504H124.365C124.688 67.9648 125.42 67.5137 126.305 67.5137C127.588 67.5137 128.338 68.2871 128.338 69.6113V74H127.072V69.916C127.072 69.0371 126.674 68.6035 125.842 68.6035C125.033 68.6035 124.5 69.207 124.5 69.9746V74H123.234V69.7871C123.234 69.0605 122.76 68.6035 122.01 68.6035C121.242 68.6035 120.674 69.2598 120.674 70.0918V74H119.402ZM130.113 74V67.6367H131.385V68.6152H131.479C131.76 67.918 132.381 67.5137 133.213 67.5137C134.08 67.5137 134.695 67.9648 134.977 68.6504H135.076C135.398 67.9648 136.131 67.5137 137.016 67.5137C138.299 67.5137 139.049 68.2871 139.049 69.6113V74H137.783V69.916C137.783 69.0371 137.385 68.6035 136.553 68.6035C135.744 68.6035 135.211 69.207 135.211 69.9746V74H133.945V69.7871C133.945 69.0605 133.471 68.6035 132.721 68.6035C131.953 68.6035 131.385 69.2598 131.385 70.0918V74H130.113ZM142.57 74.1055C141.357 74.1055 140.461 73.3672 140.461 72.2129V72.2012C140.461 71.0645 141.316 70.4023 142.834 70.3086L144.557 70.209V69.6465C144.557 68.9492 144.117 68.5625 143.256 68.5625C142.553 68.5625 142.09 68.8203 141.938 69.2715L141.932 69.2949H140.707L140.713 69.2539C140.865 68.2109 141.867 67.5137 143.314 67.5137C144.914 67.5137 145.816 68.3105 145.816 69.6465V74H144.557V73.0977H144.457C144.082 73.7422 143.414 74.1055 142.57 74.1055ZM141.727 72.1602C141.727 72.7461 142.225 73.0918 142.91 73.0918C143.859 73.0918 144.557 72.4707 144.557 71.6504V71.1055L143.004 71.2051C142.125 71.2578 141.727 71.5742 141.727 72.1484V72.1602ZM147.609 74V67.6367H148.881V68.5977H148.975C149.203 67.9238 149.795 67.5254 150.645 67.5254C150.85 67.5254 151.072 67.5547 151.201 67.584V68.7559C150.973 68.709 150.756 68.6797 150.516 68.6797C149.543 68.6797 148.881 69.2773 148.881 70.1973V74H147.609ZM153.07 76.2383C152.912 76.2383 152.725 76.2266 152.561 76.209V75.207C152.684 75.2246 152.842 75.2305 152.988 75.2305C153.58 75.2305 153.938 74.9785 154.125 74.334L154.219 74.0059L151.91 67.6367H153.281L154.875 72.7227H154.986L156.574 67.6367H157.91L155.543 74.2461C155.004 75.7637 154.359 76.2383 153.07 76.2383Z" fill="#BBBDBE"/>
<rect x="1" width="401" height="19" fill="#E0E0E0"/>
</g>
<rect x="2.5" y="0.5" width="399" height="269" rx="7.5" stroke="#E0E0E0"/>
</g>
<defs>
<filter id="filter0_d_101_316" x="0" y="0" width="404" height="274" filterUnits="userSpaceOnUse" color-interpolation-filters="sRGB">
<feFlood flood-opacity="0" result="BackgroundImageFix"/>
<feColorMatrix in="SourceAlpha" type="matrix" values="0 0 0 0 0 0 0 0 0 0 0 0 0 0 0 0 0 0 127 0" result="hardAlpha"/>
<feOffset dy="2"/>
<feGaussianBlur stdDeviation="1"/>
<feComposite in2="hardAlpha" operator="out"/>
<feColorMatrix type="matrix" values="0 0 0 0 0 0 0 0 0 0 0 0 0 0 0 0 0 0 0.04 0"/>
<feBlend mode="normal" in2="BackgroundImageFix" result="effect1_dropShadow_101_316"/>
<feBlend mode="normal" in="SourceGraphic" in2="effect1_dropShadow_101_316" result="shape"/>
</filter>
<clipPath id="clip0_101_316">
<rect x="2" width="400" height="270" rx="8" fill="white"/>
</clipPath>
</defs>
</svg>
