<svg width="404" height="274" viewBox="0 0 404 274" fill="none" xmlns="http://www.w3.org/2000/svg">
<g filter="url(#filter0_d_102_1547)">
<g clip-path="url(#clip0_102_1547)">
<rect x="2" width="400" height="270" rx="8" fill="#F0F0F1"/>
<rect x="2" width="400" height="270" rx="8" fill="white"/>
<rect x="1" width="401" height="19" fill="#E0E0E0"/>
<rect x="46" y="235" width="140" height="3" rx="1.5" fill="black"/>
<rect x="46" y="245" width="88" height="3" rx="1.5" fill="black"/>
<rect x="45.5" y="94.5" width="97" height="121" fill="white"/>
<rect x="45.5" y="94.5" width="97" height="121" stroke="#ECECEC"/>
<rect x="46" y="95" width="96" height="96" fill="#ECECEC"/>
<path d="M115.4 121.1L107.4 117.1C107.3 117 107.2 117 107 117H101C100.4 117 100 117.4 100 118C100 121.9 96.9 125 93 125C89.1 125 86 121.9 86 118C86 117.4 85.6 117 85 117H79C78.8 117 78.7 117 78.6 117.1L70.6 121.1C70.2 121.3 70 121.6 70 122V134C70 134.6 70.4 135 71 135H78V158C78 158.6 78.4 159 79 159H107C107.6 159 108 158.6 108 158V135H115C115.6 135 116 134.6 116 134V122C116 121.6 115.8 121.3 115.4 121.1Z" fill="#BBBDBE"/>
<rect x="46" y="181" width="96" height="34" fill="white"/>
<rect x="54" y="188" width="44" height="3" rx="1.5" fill="#E0E0E0"/>
<rect x="54" y="195" width="24" height="3" rx="1.5" fill="#E0E0E0"/>
<rect x="54" y="205" width="14" height="3" rx="1.5" fill="#BBBDBE"/>
<rect x="153.5" y="94.5" width="97" height="121" fill="white"/>
<rect x="153.5" y="94.5" width="97" height="121" stroke="#ECECEC"/>
<rect x="154" y="95" width="96" height="96" fill="#ECECEC"/>
<path d="M224 121H215V116C215 115.4 214.6 115 214 115H190C189.4 115 189 115.4 189 116V121H180C179.4 121 179 121.4 179 122V160C179 160.6 179.4 161 180 161H201V129C201 128.4 201.4 128 202 128C202.6 128 203 128.4 203 129V161H224C224.6 161 225 160.6 225 160V122C225 121.4 224.6 121 224 121ZM191 130.3V118.3L200.3 125.9L192.5 131.1C191.9 131.5 191 131.1 191 130.3ZM213 118.3V130.3C213 131.1 212.1 131.6 211.4 131.1L203.6 125.9L213 118.3ZM219 148C219 148.6 218.6 149 218 149H208C207.4 149 207 148.6 207 148V142C207 141.4 207.4 141 208 141H218C218.6 141 219 141.4 219 142V148Z" fill="#BBBDBE"/>
<rect x="154" y="181" width="96" height="34" fill="white"/>
<rect x="162" y="188" width="44" height="3" rx="1.5" fill="#E0E0E0"/>
<rect x="162" y="195" width="24" height="3" rx="1.5" fill="#E0E0E0"/>
<rect x="162" y="205" width="14" height="3" rx="1.5" fill="#BBBDBE"/>
<rect x="261.5" y="94.5" width="97" height="121" fill="white"/>
<rect x="261.5" y="94.5" width="97" height="121" stroke="#ECECEC"/>
<rect x="262" y="95" width="96" height="96" fill="#ECECEC"/>
<path d="M294 151H287V154C287 154.6 287.4 155 288 155H294V151Z" fill="#BBBDBE"/>
<path d="M324 136C324 135.4 324.4 135 325 135C325.6 135 326 135.4 326 136V149H333V122C333 118.1 329.9 115 326 115H318C317.4 115 317 115.4 317 116C317 119.9 313.9 123 310 123C306.1 123 303 119.9 303 116C303 115.4 302.6 115 302 115H294C290.1 115 287 118.1 287 122V149H294V136C294 135.4 294.4 135 295 135C295.6 135 296 135.4 296 136V161H324V136ZM318 133H314C313.4 133 313 132.6 313 132C313 131.4 313.4 131 314 131H318C318.6 131 319 131.4 319 132C319 132.6 318.6 133 318 133Z" fill="#BBBDBE"/>
<path d="M326 155H332C332.6 155 333 154.6 333 154V151H326V155Z" fill="#BBBDBE"/>
<rect x="262" y="181" width="96" height="34" fill="white"/>
<rect x="270" y="188" width="44" height="3" rx="1.5" fill="#E0E0E0"/>
<rect x="270" y="195" width="24" height="3" rx="1.5" fill="#E0E0E0"/>
<rect x="270" y="205" width="14" height="3" rx="1.5" fill="#BBBDBE"/>
<rect x="46" y="80" width="44" height="3" rx="1.5" fill="#E0E0E0"/>
<rect x="2" y="19" width="400" height="40" fill="#ECECEC" fill-opacity="0.5"/>
<path d="M181.238 42V34.6758H178.578V33.5449H185.205V34.6758H182.551V42H181.238ZM185.855 39.1758V38.0098H189.775V39.1758H185.855ZM194.598 42.2051C192.688 42.2051 191.463 41.2383 191.346 39.8145L191.34 39.7383H192.629L192.635 39.8027C192.705 40.5703 193.52 41.0625 194.65 41.0625C195.729 41.0625 196.496 40.5234 196.496 39.7383V39.7324C196.496 39.082 196.039 38.6602 194.92 38.4199L193.994 38.2207C192.277 37.8574 191.539 37.0605 191.539 35.8125V35.8066C191.545 34.3477 192.811 33.3398 194.604 33.3398C196.396 33.3398 197.568 34.3535 197.662 35.666L197.668 35.748H196.396L196.385 35.6719C196.273 34.9805 195.611 34.4766 194.586 34.4824C193.596 34.4824 192.863 34.9453 192.863 35.7422V35.748C192.863 36.375 193.309 36.7852 194.404 37.0195L195.324 37.2246C197.1 37.6055 197.826 38.3203 197.826 39.5742V39.5801C197.826 41.1973 196.566 42.2051 194.598 42.2051ZM199.467 42V33.1406H200.738V36.6035H200.832C201.143 35.9238 201.752 35.5137 202.678 35.5137C204.102 35.5137 204.887 36.3633 204.887 37.8809V42H203.621V38.1797C203.621 37.125 203.182 36.6035 202.25 36.6035C201.318 36.6035 200.738 37.2422 200.738 38.2676V42H199.467ZM207.324 34.5C206.885 34.5 206.527 34.1426 206.527 33.709C206.527 33.2695 206.885 32.9121 207.324 32.9121C207.758 32.9121 208.121 33.2695 208.121 33.709C208.121 34.1426 207.758 34.5 207.324 34.5ZM206.686 42V35.6367H207.951V42H206.686ZM209.803 42V35.6367H211.074V36.5977H211.168C211.396 35.9238 211.988 35.5254 212.838 35.5254C213.043 35.5254 213.266 35.5547 213.395 35.584V36.7559C213.166 36.709 212.949 36.6797 212.709 36.6797C211.736 36.6797 211.074 37.2773 211.074 38.1973V42H209.803ZM217.338 42.041C215.938 42.041 215.363 41.5488 215.363 40.3242V36.6387H214.367V35.6367H215.363V34.0312H216.658V35.6367H218.023V36.6387H216.658V40.0195C216.658 40.7051 216.916 40.9863 217.543 40.9863C217.736 40.9863 217.848 40.9805 218.023 40.9629V41.9766C217.818 42.0117 217.584 42.041 217.338 42.041ZM221.727 42.123C220.191 42.123 219.219 41.4023 219.096 40.3359V40.3301H220.367L220.373 40.3359C220.531 40.8164 220.994 41.1387 221.75 41.1387C222.535 41.1387 223.08 40.7812 223.08 40.2598V40.248C223.08 39.8496 222.781 39.5801 222.043 39.4102L221.029 39.1758C219.828 38.9004 219.271 38.3555 219.271 37.4238V37.418C219.271 36.3105 220.303 35.5137 221.744 35.5137C223.197 35.5137 224.129 36.2402 224.24 37.2773V37.2832H223.027V37.2715C222.904 36.8262 222.453 36.4922 221.738 36.4922C221.041 36.4922 220.537 36.8379 220.537 37.3477V37.3594C220.537 37.7578 220.83 38.0039 221.545 38.1738L222.553 38.4023C223.777 38.6895 224.363 39.2109 224.363 40.1309V40.1426C224.363 41.3203 223.238 42.123 221.727 42.123Z" fill="#BBBDBE"/>
</g>
<rect x="2.5" y="0.5" width="399" height="269" rx="7.5" stroke="#E0E0E0"/>
</g>
<defs>
<filter id="filter0_d_102_1547" x="0" y="0" width="404" height="274" filterUnits="userSpaceOnUse" color-interpolation-filters="sRGB">
<feFlood flood-opacity="0" result="BackgroundImageFix"/>
<feColorMatrix in="SourceAlpha" type="matrix" values="0 0 0 0 0 0 0 0 0 0 0 0 0 0 0 0 0 0 127 0" result="hardAlpha"/>
<feOffset dy="2"/>
<feGaussianBlur stdDeviation="1"/>
<feComposite in2="hardAlpha" operator="out"/>
<feColorMatrix type="matrix" values="0 0 0 0 0 0 0 0 0 0 0 0 0 0 0 0 0 0 0.04 0"/>
<feBlend mode="normal" in2="BackgroundImageFix" result="effect1_dropShadow_102_1547"/>
<feBlend mode="normal" in="SourceGraphic" in2="effect1_dropShadow_102_1547" result="shape"/>
</filter>
<clipPath id="clip0_102_1547">
<rect x="2" width="400" height="270" rx="8" fill="white"/>
</clipPath>
</defs>
</svg>
