<svg width="404" height="274" viewBox="0 0 404 274" fill="none" xmlns="http://www.w3.org/2000/svg">
<g filter="url(#filter0_d_101_294)">
<g clip-path="url(#clip0_101_294)">
<rect x="2" width="400" height="270" rx="8" fill="#F0F0F1"/>
<rect x="2" width="400" height="270" rx="8" fill="white"/>
<rect x="1" width="401" height="19" fill="#E0E0E0"/>
<rect x="79.5" y="78.5" width="119" height="13" rx="1.5" fill="white" stroke="#ECECEC"/>
<rect x="79" y="71" width="24" height="3" rx="1.5" fill="#ECECEC"/>
<rect x="79.5" y="111.5" width="119" height="13" rx="1.5" fill="white" stroke="#ECECEC"/>
<rect x="79.5" y="128.5" width="119" height="13" rx="1.5" fill="white" stroke="#ECECEC"/>
<rect x="79" y="104" width="24" height="3" rx="1.5" fill="#ECECEC"/>
<rect x="79.5" y="161.5" width="119" height="13" rx="1.5" fill="white" stroke="#ECECEC"/>
<rect x="79" y="154" width="24" height="3" rx="1.5" fill="#ECECEC"/>
<rect x="79.5" y="187.5" width="119" height="23" rx="1.5" fill="white" stroke="black" stroke-dasharray="2 2"/>
<g clip-path="url(#clip1_101_294)">
<path d="M144 198H140V194C140 193.735 139.895 193.48 139.707 193.293C139.52 193.105 139.265 193 139 193C138.735 193 138.48 193.105 138.293 193.293C138.105 193.48 138 193.735 138 194V198H134C133.735 198 133.48 198.105 133.293 198.293C133.105 198.48 133 198.735 133 199C133 199.265 133.105 199.52 133.293 199.707C133.48 199.895 133.735 200 134 200H138V204C138 204.265 138.105 204.52 138.293 204.707C138.48 204.895 138.735 205 139 205C139.265 205 139.52 204.895 139.707 204.707C139.895 204.52 140 204.265 140 204V200H144C144.265 200 144.52 199.895 144.707 199.707C144.895 199.52 145 199.265 145 199C145 198.735 144.895 198.48 144.707 198.293C144.52 198.105 144.265 198 144 198Z" fill="black"/>
</g>
<rect x="79.5" y="230.5" width="119" height="13" rx="1.5" fill="white" stroke="#ECECEC"/>
<rect x="79" y="223" width="24" height="3" rx="1.5" fill="#ECECEC"/>
<rect x="227" y="166" width="98" height="20" rx="2" fill="#ECECEC"/>
<rect x="227" y="71" width="30" height="3" rx="1.5" fill="#ECECEC"/>
<rect x="282" y="71" width="20" height="3" rx="1.5" fill="#ECECEC"/>
<rect x="227" y="79" width="98" height="1" fill="#ECECEC"/>
<rect x="227" y="95" width="98" height="1" fill="#ECECEC"/>
<rect x="227" y="111" width="98" height="1" fill="#ECECEC"/>
<path d="M230.387 54V50.5371L227.41 45.5449H228.869L230.996 49.2305H231.096L233.223 45.5449H234.682L231.699 50.5371V54H230.387ZM237.652 54.123C235.783 54.123 234.641 52.875 234.641 50.8242V50.8125C234.641 48.7676 235.789 47.5137 237.652 47.5137C239.51 47.5137 240.658 48.7617 240.658 50.8125V50.8242C240.658 52.875 239.516 54.123 237.652 54.123ZM237.652 53.0625C238.742 53.0625 239.363 52.2305 239.363 50.8242V50.8125C239.363 49.4004 238.742 48.5742 237.652 48.5742C236.557 48.5742 235.941 49.4004 235.941 50.8125V50.8242C235.941 52.2363 236.557 53.0625 237.652 53.0625ZM244.297 54.123C242.861 54.123 242.117 53.2617 242.117 51.7559V47.6367H243.389V51.457C243.389 52.5117 243.775 53.0332 244.707 53.0332C245.727 53.0332 246.271 52.3945 246.271 51.3691V47.6367H247.537V54H246.271V53.0391H246.172C245.867 53.7246 245.223 54.123 244.297 54.123ZM249.371 54V47.6367H250.643V48.5977H250.736C250.965 47.9238 251.557 47.5254 252.406 47.5254C252.611 47.5254 252.834 47.5547 252.963 47.584V48.7559C252.734 48.709 252.518 48.6797 252.277 48.6797C251.305 48.6797 250.643 49.2773 250.643 50.1973V54H249.371ZM260.152 54.123C258.283 54.123 257.141 52.875 257.141 50.8242V50.8125C257.141 48.7676 258.289 47.5137 260.152 47.5137C262.01 47.5137 263.158 48.7617 263.158 50.8125V50.8242C263.158 52.875 262.016 54.123 260.152 54.123ZM260.152 53.0625C261.242 53.0625 261.863 52.2305 261.863 50.8242V50.8125C261.863 49.4004 261.242 48.5742 260.152 48.5742C259.057 48.5742 258.441 49.4004 258.441 50.8125V50.8242C258.441 52.2363 259.057 53.0625 260.152 53.0625ZM264.676 54V47.6367H265.947V48.5977H266.041C266.27 47.9238 266.861 47.5254 267.711 47.5254C267.916 47.5254 268.139 47.5547 268.268 47.584V48.7559C268.039 48.709 267.822 48.6797 267.582 48.6797C266.609 48.6797 265.947 49.2773 265.947 50.1973V54H264.676ZM271.637 54.1055C270.037 54.1055 269 52.8223 269 50.8242V50.8125C269 48.7969 270.02 47.5254 271.637 47.5254C272.51 47.5254 273.254 47.959 273.594 48.6445H273.693V45.1406H274.959V54H273.693V52.998H273.594C273.225 53.6953 272.527 54.1055 271.637 54.1055ZM272 53.0215C273.061 53.0215 273.711 52.1836 273.711 50.8242V50.8125C273.711 49.4531 273.055 48.6152 272 48.6152C270.934 48.6152 270.295 49.4473 270.295 50.8125V50.8242C270.295 52.1895 270.934 53.0215 272 53.0215ZM279.523 54.123C277.66 54.123 276.535 52.8516 276.535 50.8359V50.8301C276.535 48.8438 277.684 47.5137 279.459 47.5137C281.234 47.5137 282.324 48.7969 282.324 50.707V51.1523H277.812C277.836 52.3711 278.504 53.0801 279.553 53.0801C280.367 53.0801 280.854 52.6758 281.006 52.3477L281.029 52.3008L282.254 52.2949L282.242 52.3477C282.031 53.1855 281.152 54.123 279.523 54.123ZM279.465 48.5566C278.598 48.5566 277.941 49.1484 277.83 50.2441H281.064C280.965 49.1074 280.326 48.5566 279.465 48.5566ZM283.836 54V47.6367H285.107V48.5977H285.201C285.43 47.9238 286.021 47.5254 286.871 47.5254C287.076 47.5254 287.299 47.5547 287.428 47.584V48.7559C287.199 48.709 286.982 48.6797 286.742 48.6797C285.77 48.6797 285.107 49.2773 285.107 50.1973V54H283.836Z" fill="#BBBDBE"/>
<path d="M79.0605 54V45.5449H82.459C84.0469 45.5449 85.002 46.3535 85.002 47.6484V47.6602C85.002 48.5391 84.3516 49.3301 83.5195 49.4707V49.5703C84.6621 49.6934 85.4238 50.502 85.4238 51.6035V51.6152C85.4238 53.0977 84.3398 54 82.5352 54H79.0605ZM82.1543 46.6172H80.373V49.1426H81.9316C83.0918 49.1426 83.6953 48.709 83.6953 47.8887V47.877C83.6953 47.0801 83.127 46.6172 82.1543 46.6172ZM82.1953 50.1445H80.373V52.9277H82.2715C83.4551 52.9277 84.082 52.4414 84.082 51.5332V51.5215C84.082 50.6133 83.4316 50.1445 82.1953 50.1445ZM87.627 46.5C87.1875 46.5 86.8301 46.1426 86.8301 45.709C86.8301 45.2695 87.1875 44.9121 87.627 44.9121C88.0605 44.9121 88.4238 45.2695 88.4238 45.709C88.4238 46.1426 88.0605 46.5 87.627 46.5ZM86.9883 54V47.6367H88.2539V54H86.9883ZM90.1641 54V45.1406H91.4355V54H90.1641ZM93.3867 54V45.1406H94.6582V54H93.3867ZM97.2129 46.5C96.7734 46.5 96.416 46.1426 96.416 45.709C96.416 45.2695 96.7734 44.9121 97.2129 44.9121C97.6465 44.9121 98.0098 45.2695 98.0098 45.709C98.0098 46.1426 97.6465 46.5 97.2129 46.5ZM96.5742 54V47.6367H97.8398V54H96.5742ZM99.6914 54V47.6367H100.963V48.6035H101.057C101.367 47.9238 101.977 47.5137 102.902 47.5137C104.326 47.5137 105.111 48.3633 105.111 49.8809V54H103.846V50.1797C103.846 49.125 103.406 48.6035 102.475 48.6035C101.543 48.6035 100.963 49.2422 100.963 50.2676V54H99.6914ZM109.576 56.2441C107.959 56.2441 106.963 55.5352 106.811 54.4746L106.822 54.4629H108.105L108.111 54.4746C108.217 54.9141 108.732 55.2246 109.594 55.2246C110.643 55.2246 111.264 54.7324 111.264 53.8652V52.6113H111.17C110.783 53.3027 110.08 53.6895 109.207 53.6895C107.572 53.6895 106.564 52.4297 106.564 50.6367V50.625C106.564 48.8086 107.578 47.5254 109.23 47.5254C110.121 47.5254 110.812 47.9648 111.182 48.6797H111.258V47.6367H112.523V53.8711C112.523 55.3184 111.381 56.2441 109.576 56.2441ZM109.559 52.6406C110.637 52.6406 111.287 51.8203 111.287 50.6309V50.6191C111.287 49.4355 110.631 48.6035 109.559 48.6035C108.475 48.6035 107.865 49.4355 107.865 50.6191V50.6309C107.865 51.8145 108.475 52.6406 109.559 52.6406ZM117.779 54V45.5449H120.832C123.34 45.5449 124.811 47.0918 124.811 49.7461V49.7578C124.811 52.4414 123.352 54 120.832 54H117.779ZM119.092 52.8691H120.686C122.455 52.8691 123.475 51.7383 123.475 49.7754V49.7637C123.475 47.8184 122.438 46.6758 120.686 46.6758H119.092V52.8691ZM129.117 54.123C127.254 54.123 126.129 52.8516 126.129 50.8359V50.8301C126.129 48.8438 127.277 47.5137 129.053 47.5137C130.828 47.5137 131.918 48.7969 131.918 50.707V51.1523H127.406C127.43 52.3711 128.098 53.0801 129.146 53.0801C129.961 53.0801 130.447 52.6758 130.6 52.3477L130.623 52.3008L131.848 52.2949L131.836 52.3477C131.625 53.1855 130.746 54.123 129.117 54.123ZM129.059 48.5566C128.191 48.5566 127.535 49.1484 127.424 50.2441H130.658C130.559 49.1074 129.92 48.5566 129.059 48.5566ZM135.832 54.041C134.432 54.041 133.857 53.5488 133.857 52.3242V48.6387H132.861V47.6367H133.857V46.0312H135.152V47.6367H136.518V48.6387H135.152V52.0195C135.152 52.7051 135.41 52.9863 136.037 52.9863C136.23 52.9863 136.342 52.9805 136.518 52.9629V53.9766C136.312 54.0117 136.078 54.041 135.832 54.041ZM139.746 54.1055C138.533 54.1055 137.637 53.3672 137.637 52.2129V52.2012C137.637 51.0645 138.492 50.4023 140.01 50.3086L141.732 50.209V49.6465C141.732 48.9492 141.293 48.5625 140.432 48.5625C139.729 48.5625 139.266 48.8203 139.113 49.2715L139.107 49.2949H137.883L137.889 49.2539C138.041 48.2109 139.043 47.5137 140.49 47.5137C142.09 47.5137 142.992 48.3105 142.992 49.6465V54H141.732V53.0977H141.633C141.258 53.7422 140.59 54.1055 139.746 54.1055ZM138.902 52.1602C138.902 52.7461 139.4 53.0918 140.086 53.0918C141.035 53.0918 141.732 52.4707 141.732 51.6504V51.1055L140.18 51.2051C139.301 51.2578 138.902 51.5742 138.902 52.1484V52.1602ZM145.447 46.5C145.008 46.5 144.65 46.1426 144.65 45.709C144.65 45.2695 145.008 44.9121 145.447 44.9121C145.881 44.9121 146.244 45.2695 146.244 45.709C146.244 46.1426 145.881 46.5 145.447 46.5ZM144.809 54V47.6367H146.074V54H144.809ZM147.984 54V45.1406H149.256V54H147.984ZM153.463 54.123C151.928 54.123 150.955 53.4023 150.832 52.3359V52.3301H152.104L152.109 52.3359C152.268 52.8164 152.73 53.1387 153.486 53.1387C154.271 53.1387 154.816 52.7812 154.816 52.2598V52.248C154.816 51.8496 154.518 51.5801 153.779 51.4102L152.766 51.1758C151.564 50.9004 151.008 50.3555 151.008 49.4238V49.418C151.008 48.3105 152.039 47.5137 153.48 47.5137C154.934 47.5137 155.865 48.2402 155.977 49.2773V49.2832H154.764V49.2715C154.641 48.8262 154.189 48.4922 153.475 48.4922C152.777 48.4922 152.273 48.8379 152.273 49.3477V49.3594C152.273 49.7578 152.566 50.0039 153.281 50.1738L154.289 50.4023C155.514 50.6895 156.1 51.2109 156.1 52.1309V52.1426C156.1 53.3203 154.975 54.123 153.463 54.123Z" fill="#BBBDBE"/>
<rect x="227" y="86" width="20" height="3" rx="1.5" fill="#ECECEC"/>
<rect x="282" y="86" width="9" height="3" rx="1.5" fill="#ECECEC"/>
<rect x="227" y="102" width="24" height="3" rx="1.5" fill="#ECECEC"/>
<rect x="282" y="102" width="12" height="3" rx="1.5" fill="#ECECEC"/>
<rect x="227" y="118" width="17" height="3" rx="1.5" fill="#ECECEC"/>
<rect x="282" y="118" width="10" height="3" rx="1.5" fill="#ECECEC"/>
<rect x="227.5" y="131.5" width="97" height="25" rx="1.5" fill="white"/>
<rect x="227.5" y="131.5" width="97" height="25" rx="1.5" stroke="#ECECEC"/>
<path d="M248 141V139C248 138.4 247.6 138 247 138H233C232.4 138 232 138.4 232 139V141H248Z" fill="#ECECEC"/>
<path d="M232 143V149C232 149.6 232.4 150 233 150H247C247.6 150 248 149.6 248 149V143H232ZM238 147H234V146H238V147ZM246 147H244V146H246V147Z" fill="#ECECEC"/>
<path d="M259.44 144.007V144.014C259.44 144.445 259.102 144.787 258.671 144.787H258.665C258.234 144.787 257.892 144.445 257.892 144.014V144.007C257.892 143.58 258.234 143.238 258.665 143.238H258.671C259.102 143.238 259.44 143.58 259.44 144.007ZM262.776 144.007V144.014C262.776 144.445 262.438 144.787 262.007 144.787H262C261.57 144.787 261.228 144.445 261.228 144.014V144.007C261.228 143.58 261.57 143.238 262 143.238H262.007C262.438 143.238 262.776 143.58 262.776 144.007ZM266.112 144.007V144.014C266.112 144.445 265.774 144.787 265.343 144.787H265.336C264.906 144.787 264.564 144.445 264.564 144.014V144.007C264.564 143.58 264.906 143.238 265.336 143.238H265.343C265.774 143.238 266.112 143.58 266.112 144.007ZM269.448 144.007V144.014C269.448 144.445 269.11 144.787 268.679 144.787H268.672C268.242 144.787 267.9 144.445 267.9 144.014V144.007C267.9 143.58 268.242 143.238 268.672 143.238H268.679C269.11 143.238 269.448 143.58 269.448 144.007ZM274.698 144.007V144.014C274.698 144.445 274.36 144.787 273.929 144.787H273.922C273.492 144.787 273.15 144.445 273.15 144.014V144.007C273.15 143.58 273.492 143.238 273.922 143.238H273.929C274.36 143.238 274.698 143.58 274.698 144.007ZM278.034 144.007V144.014C278.034 144.445 277.696 144.787 277.265 144.787H277.258C276.828 144.787 276.486 144.445 276.486 144.014V144.007C276.486 143.58 276.828 143.238 277.258 143.238H277.265C277.696 143.238 278.034 143.58 278.034 144.007ZM281.37 144.007V144.014C281.37 144.445 281.032 144.787 280.601 144.787H280.594C280.164 144.787 279.822 144.445 279.822 144.014V144.007C279.822 143.58 280.164 143.238 280.594 143.238H280.601C281.032 143.238 281.37 143.58 281.37 144.007ZM284.706 144.007V144.014C284.706 144.445 284.368 144.787 283.937 144.787H283.93C283.5 144.787 283.158 144.445 283.158 144.014V144.007C283.158 143.58 283.5 143.238 283.93 143.238H283.937C284.368 143.238 284.706 143.58 284.706 144.007ZM289.956 144.007V144.014C289.956 144.445 289.618 144.787 289.187 144.787H289.18C288.75 144.787 288.408 144.445 288.408 144.014V144.007C288.408 143.58 288.75 143.238 289.18 143.238H289.187C289.618 143.238 289.956 143.58 289.956 144.007ZM293.292 144.007V144.014C293.292 144.445 292.954 144.787 292.523 144.787H292.516C292.085 144.787 291.744 144.445 291.744 144.014V144.007C291.744 143.58 292.085 143.238 292.516 143.238H292.523C292.954 143.238 293.292 143.58 293.292 144.007ZM296.628 144.007V144.014C296.628 144.445 296.29 144.787 295.859 144.787H295.852C295.421 144.787 295.08 144.445 295.08 144.014V144.007C295.08 143.58 295.421 143.238 295.852 143.238H295.859C296.29 143.238 296.628 143.58 296.628 144.007ZM299.964 144.007V144.014C299.964 144.445 299.625 144.787 299.195 144.787H299.188C298.757 144.787 298.416 144.445 298.416 144.014V144.007C298.416 143.58 298.757 143.238 299.188 143.238H299.195C299.625 143.238 299.964 143.58 299.964 144.007ZM305.214 144.007V144.014C305.214 144.445 304.875 144.787 304.445 144.787H304.438C304.007 144.787 303.666 144.445 303.666 144.014V144.007C303.666 143.58 304.007 143.238 304.438 143.238H304.445C304.875 143.238 305.214 143.58 305.214 144.007ZM308.55 144.007V144.014C308.55 144.445 308.211 144.787 307.781 144.787H307.774C307.343 144.787 307.001 144.445 307.001 144.014V144.007C307.001 143.58 307.343 143.238 307.774 143.238H307.781C308.211 143.238 308.55 143.58 308.55 144.007ZM311.886 144.007V144.014C311.886 144.445 311.547 144.787 311.117 144.787H311.11C310.679 144.787 310.337 144.445 310.337 144.014V144.007C310.337 143.58 310.679 143.238 311.11 143.238H311.117C311.547 143.238 311.886 143.58 311.886 144.007ZM315.222 144.007V144.014C315.222 144.445 314.883 144.787 314.453 144.787H314.446C314.015 144.787 313.673 144.445 313.673 144.014V144.007C313.673 143.58 314.015 143.238 314.446 143.238H314.453C314.883 143.238 315.222 143.58 315.222 144.007Z" fill="black" fill-opacity="0.3"/>
</g>
<rect x="2.5" y="0.5" width="399" height="269" rx="7.5" stroke="#E0E0E0"/>
</g>
<defs>
<filter id="filter0_d_101_294" x="0" y="0" width="404" height="274" filterUnits="userSpaceOnUse" color-interpolation-filters="sRGB">
<feFlood flood-opacity="0" result="BackgroundImageFix"/>
<feColorMatrix in="SourceAlpha" type="matrix" values="0 0 0 0 0 0 0 0 0 0 0 0 0 0 0 0 0 0 127 0" result="hardAlpha"/>
<feOffset dy="2"/>
<feGaussianBlur stdDeviation="1"/>
<feComposite in2="hardAlpha" operator="out"/>
<feColorMatrix type="matrix" values="0 0 0 0 0 0 0 0 0 0 0 0 0 0 0 0 0 0 0.04 0"/>
<feBlend mode="normal" in2="BackgroundImageFix" result="effect1_dropShadow_101_294"/>
<feBlend mode="normal" in="SourceGraphic" in2="effect1_dropShadow_101_294" result="shape"/>
</filter>
<clipPath id="clip0_101_294">
<rect x="2" width="400" height="270" rx="8" fill="white"/>
</clipPath>
<clipPath id="clip1_101_294">
<rect width="12" height="12" fill="white" transform="translate(133 193)"/>
</clipPath>
</defs>
</svg>
