<svg width="404" height="274" viewBox="0 0 404 274" fill="none" xmlns="http://www.w3.org/2000/svg">
<g filter="url(#filter0_d_101_499)">
<g clip-path="url(#clip0_101_499)">
<rect x="2" width="400" height="270" rx="8" fill="#F0F0F1"/>
<rect x="2" width="400" height="270" rx="8" fill="white"/>
<rect x="1" width="401" height="19" fill="#E0E0E0"/>
<rect x="153" y="201" width="98" height="20" rx="2" fill="#ECECEC"/>
<rect x="153" y="81" width="30" height="3" rx="1.5" fill="#ECECEC"/>
<rect x="153" y="147" width="68" height="3" rx="1.5" fill="black"/>
<rect x="208" y="81" width="20" height="3" rx="1.5" fill="#ECECEC"/>
<rect x="153" y="89" width="98" height="1" fill="#ECECEC"/>
<rect x="153" y="105" width="98" height="1" fill="#ECECEC"/>
<rect x="153" y="121" width="98" height="1" fill="#ECECEC"/>
<path d="M156.387 64V60.5371L153.41 55.5449H154.869L156.996 59.2305H157.096L159.223 55.5449H160.682L157.699 60.5371V64H156.387ZM163.652 64.123C161.783 64.123 160.641 62.875 160.641 60.8242V60.8125C160.641 58.7676 161.789 57.5137 163.652 57.5137C165.51 57.5137 166.658 58.7617 166.658 60.8125V60.8242C166.658 62.875 165.516 64.123 163.652 64.123ZM163.652 63.0625C164.742 63.0625 165.363 62.2305 165.363 60.8242V60.8125C165.363 59.4004 164.742 58.5742 163.652 58.5742C162.557 58.5742 161.941 59.4004 161.941 60.8125V60.8242C161.941 62.2363 162.557 63.0625 163.652 63.0625ZM170.297 64.123C168.861 64.123 168.117 63.2617 168.117 61.7559V57.6367H169.389V61.457C169.389 62.5117 169.775 63.0332 170.707 63.0332C171.727 63.0332 172.271 62.3945 172.271 61.3691V57.6367H173.537V64H172.271V63.0391H172.172C171.867 63.7246 171.223 64.123 170.297 64.123ZM175.371 64V57.6367H176.643V58.5977H176.736C176.965 57.9238 177.557 57.5254 178.406 57.5254C178.611 57.5254 178.834 57.5547 178.963 57.584V58.7559C178.734 58.709 178.518 58.6797 178.277 58.6797C177.305 58.6797 176.643 59.2773 176.643 60.1973V64H175.371ZM186.152 64.123C184.283 64.123 183.141 62.875 183.141 60.8242V60.8125C183.141 58.7676 184.289 57.5137 186.152 57.5137C188.01 57.5137 189.158 58.7617 189.158 60.8125V60.8242C189.158 62.875 188.016 64.123 186.152 64.123ZM186.152 63.0625C187.242 63.0625 187.863 62.2305 187.863 60.8242V60.8125C187.863 59.4004 187.242 58.5742 186.152 58.5742C185.057 58.5742 184.441 59.4004 184.441 60.8125V60.8242C184.441 62.2363 185.057 63.0625 186.152 63.0625ZM190.676 64V57.6367H191.947V58.5977H192.041C192.27 57.9238 192.861 57.5254 193.711 57.5254C193.916 57.5254 194.139 57.5547 194.268 57.584V58.7559C194.039 58.709 193.822 58.6797 193.582 58.6797C192.609 58.6797 191.947 59.2773 191.947 60.1973V64H190.676ZM197.637 64.1055C196.037 64.1055 195 62.8223 195 60.8242V60.8125C195 58.7969 196.02 57.5254 197.637 57.5254C198.51 57.5254 199.254 57.959 199.594 58.6445H199.693V55.1406H200.959V64H199.693V62.998H199.594C199.225 63.6953 198.527 64.1055 197.637 64.1055ZM198 63.0215C199.061 63.0215 199.711 62.1836 199.711 60.8242V60.8125C199.711 59.4531 199.055 58.6152 198 58.6152C196.934 58.6152 196.295 59.4473 196.295 60.8125V60.8242C196.295 62.1895 196.934 63.0215 198 63.0215ZM205.523 64.123C203.66 64.123 202.535 62.8516 202.535 60.8359V60.8301C202.535 58.8438 203.684 57.5137 205.459 57.5137C207.234 57.5137 208.324 58.7969 208.324 60.707V61.1523H203.812C203.836 62.3711 204.504 63.0801 205.553 63.0801C206.367 63.0801 206.854 62.6758 207.006 62.3477L207.029 62.3008L208.254 62.2949L208.242 62.3477C208.031 63.1855 207.152 64.123 205.523 64.123ZM205.465 58.5566C204.598 58.5566 203.941 59.1484 203.83 60.2441H207.064C206.965 59.1074 206.326 58.5566 205.465 58.5566ZM209.836 64V57.6367H211.107V58.5977H211.201C211.43 57.9238 212.021 57.5254 212.871 57.5254C213.076 57.5254 213.299 57.5547 213.428 57.584V58.7559C213.199 58.709 212.982 58.6797 212.742 58.6797C211.77 58.6797 211.107 59.2773 211.107 60.1973V64H209.836Z" fill="#BBBDBE"/>
<rect x="153" y="96" width="20" height="3" rx="1.5" fill="#ECECEC"/>
<rect x="208" y="96" width="9" height="3" rx="1.5" fill="#ECECEC"/>
<rect x="153" y="112" width="24" height="3" rx="1.5" fill="#ECECEC"/>
<rect x="208" y="112" width="12" height="3" rx="1.5" fill="#ECECEC"/>
<rect x="153" y="128" width="17" height="3" rx="1.5" fill="#ECECEC"/>
<rect x="208" y="128" width="10" height="3" rx="1.5" fill="#ECECEC"/>
<rect x="153.5" y="166.5" width="97" height="25" rx="1.5" fill="white"/>
<rect x="153.5" y="166.5" width="97" height="25" rx="1.5" stroke="#ECECEC"/>
<path d="M174 176V174C174 173.4 173.6 173 173 173H159C158.4 173 158 173.4 158 174V176H174Z" fill="#ECECEC"/>
<path d="M158 178V184C158 184.6 158.4 185 159 185H173C173.6 185 174 184.6 174 184V178H158ZM164 182H160V181H164V182ZM172 182H170V181H172V182Z" fill="#ECECEC"/>
<path d="M185.44 179.007V179.014C185.44 179.445 185.102 179.787 184.671 179.787H184.665C184.234 179.787 183.892 179.445 183.892 179.014V179.007C183.892 178.58 184.234 178.238 184.665 178.238H184.671C185.102 178.238 185.44 178.58 185.44 179.007ZM188.776 179.007V179.014C188.776 179.445 188.438 179.787 188.007 179.787H188C187.57 179.787 187.228 179.445 187.228 179.014V179.007C187.228 178.58 187.57 178.238 188 178.238H188.007C188.438 178.238 188.776 178.58 188.776 179.007ZM192.112 179.007V179.014C192.112 179.445 191.774 179.787 191.343 179.787H191.336C190.906 179.787 190.564 179.445 190.564 179.014V179.007C190.564 178.58 190.906 178.238 191.336 178.238H191.343C191.774 178.238 192.112 178.58 192.112 179.007ZM195.448 179.007V179.014C195.448 179.445 195.11 179.787 194.679 179.787H194.672C194.242 179.787 193.9 179.445 193.9 179.014V179.007C193.9 178.58 194.242 178.238 194.672 178.238H194.679C195.11 178.238 195.448 178.58 195.448 179.007ZM200.698 179.007V179.014C200.698 179.445 200.36 179.787 199.929 179.787H199.922C199.492 179.787 199.15 179.445 199.15 179.014V179.007C199.15 178.58 199.492 178.238 199.922 178.238H199.929C200.36 178.238 200.698 178.58 200.698 179.007ZM204.034 179.007V179.014C204.034 179.445 203.696 179.787 203.265 179.787H203.258C202.828 179.787 202.486 179.445 202.486 179.014V179.007C202.486 178.58 202.828 178.238 203.258 178.238H203.265C203.696 178.238 204.034 178.58 204.034 179.007ZM207.37 179.007V179.014C207.37 179.445 207.032 179.787 206.601 179.787H206.594C206.164 179.787 205.822 179.445 205.822 179.014V179.007C205.822 178.58 206.164 178.238 206.594 178.238H206.601C207.032 178.238 207.37 178.58 207.37 179.007ZM210.706 179.007V179.014C210.706 179.445 210.368 179.787 209.937 179.787H209.93C209.5 179.787 209.158 179.445 209.158 179.014V179.007C209.158 178.58 209.5 178.238 209.93 178.238H209.937C210.368 178.238 210.706 178.58 210.706 179.007ZM215.956 179.007V179.014C215.956 179.445 215.618 179.787 215.187 179.787H215.18C214.75 179.787 214.408 179.445 214.408 179.014V179.007C214.408 178.58 214.75 178.238 215.18 178.238H215.187C215.618 178.238 215.956 178.58 215.956 179.007ZM219.292 179.007V179.014C219.292 179.445 218.954 179.787 218.523 179.787H218.516C218.085 179.787 217.744 179.445 217.744 179.014V179.007C217.744 178.58 218.085 178.238 218.516 178.238H218.523C218.954 178.238 219.292 178.58 219.292 179.007ZM222.628 179.007V179.014C222.628 179.445 222.29 179.787 221.859 179.787H221.852C221.421 179.787 221.08 179.445 221.08 179.014V179.007C221.08 178.58 221.421 178.238 221.852 178.238H221.859C222.29 178.238 222.628 178.58 222.628 179.007ZM225.964 179.007V179.014C225.964 179.445 225.625 179.787 225.195 179.787H225.188C224.757 179.787 224.416 179.445 224.416 179.014V179.007C224.416 178.58 224.757 178.238 225.188 178.238H225.195C225.625 178.238 225.964 178.58 225.964 179.007ZM231.214 179.007V179.014C231.214 179.445 230.875 179.787 230.445 179.787H230.438C230.007 179.787 229.666 179.445 229.666 179.014V179.007C229.666 178.58 230.007 178.238 230.438 178.238H230.445C230.875 178.238 231.214 178.58 231.214 179.007ZM234.55 179.007V179.014C234.55 179.445 234.211 179.787 233.781 179.787H233.774C233.343 179.787 233.001 179.445 233.001 179.014V179.007C233.001 178.58 233.343 178.238 233.774 178.238H233.781C234.211 178.238 234.55 178.58 234.55 179.007ZM237.886 179.007V179.014C237.886 179.445 237.547 179.787 237.117 179.787H237.11C236.679 179.787 236.337 179.445 236.337 179.014V179.007C236.337 178.58 236.679 178.238 237.11 178.238H237.117C237.547 178.238 237.886 178.58 237.886 179.007ZM241.222 179.007V179.014C241.222 179.445 240.883 179.787 240.453 179.787H240.446C240.015 179.787 239.673 179.445 239.673 179.014V179.007C239.673 178.58 240.015 178.238 240.446 178.238H240.453C240.883 178.238 241.222 178.58 241.222 179.007Z" fill="black" fill-opacity="0.3"/>
<rect x="2" y="18" width="400" height="252" fill="#1D2327" fill-opacity="0.8"/>
<rect x="100" y="110" width="204" height="68" rx="2" fill="white"/>
<rect x="110.5" y="149.5" width="151" height="13" rx="1.5" fill="white" stroke="#1D2327"/>
<rect x="110" y="129" width="90" height="3" rx="1.5" fill="#1D2327" fill-opacity="0.3"/>
<rect x="110" y="136" width="20" height="3" rx="1.5" fill="#1D2327" fill-opacity="0.3"/>
<rect x="266" y="149" width="29" height="14" rx="2" fill="black"/>
<rect x="272" y="155" width="18" height="2" rx="1" fill="white" fill-opacity="0.3"/>
<g clip-path="url(#clip1_101_499)">
<path d="M295.246 119.754C295.136 119.645 294.988 119.583 294.833 119.583C294.679 119.583 294.53 119.645 294.421 119.754L292.5 121.675L290.579 119.754C290.469 119.648 290.322 119.589 290.169 119.591C290.016 119.592 289.87 119.653 289.761 119.761C289.653 119.87 289.592 120.016 289.591 120.169C289.589 120.322 289.648 120.469 289.754 120.579L291.675 122.5L289.754 124.421C289.699 124.475 289.654 124.539 289.624 124.61C289.593 124.681 289.577 124.758 289.576 124.835C289.576 124.913 289.59 124.99 289.62 125.061C289.649 125.133 289.692 125.198 289.747 125.253C289.802 125.308 289.867 125.351 289.939 125.38C290.01 125.41 290.087 125.424 290.165 125.424C290.242 125.423 290.319 125.407 290.39 125.376C290.461 125.346 290.525 125.301 290.579 125.246L292.5 123.325L294.421 125.246C294.531 125.352 294.678 125.411 294.831 125.409C294.984 125.408 295.13 125.347 295.239 125.239C295.347 125.13 295.408 124.984 295.409 124.831C295.411 124.678 295.352 124.531 295.246 124.421L293.325 122.5L295.246 120.579C295.355 120.47 295.417 120.321 295.417 120.167C295.417 120.012 295.355 119.864 295.246 119.754Z" fill="#AEB0B1"/>
</g>
<rect x="114" y="152" width="1" height="8" fill="#BBBDBE"/>
</g>
<rect x="2.5" y="0.5" width="399" height="269" rx="7.5" stroke="#E0E0E0"/>
</g>
<defs>
<filter id="filter0_d_101_499" x="0" y="0" width="404" height="274" filterUnits="userSpaceOnUse" color-interpolation-filters="sRGB">
<feFlood flood-opacity="0" result="BackgroundImageFix"/>
<feColorMatrix in="SourceAlpha" type="matrix" values="0 0 0 0 0 0 0 0 0 0 0 0 0 0 0 0 0 0 127 0" result="hardAlpha"/>
<feOffset dy="2"/>
<feGaussianBlur stdDeviation="1"/>
<feComposite in2="hardAlpha" operator="out"/>
<feColorMatrix type="matrix" values="0 0 0 0 0 0 0 0 0 0 0 0 0 0 0 0 0 0 0.04 0"/>
<feBlend mode="normal" in2="BackgroundImageFix" result="effect1_dropShadow_101_499"/>
<feBlend mode="normal" in="SourceGraphic" in2="effect1_dropShadow_101_499" result="shape"/>
</filter>
<clipPath id="clip0_101_499">
<rect x="2" width="400" height="270" rx="8" fill="white"/>
</clipPath>
<clipPath id="clip1_101_499">
<rect width="7" height="7" fill="white" transform="translate(289 119)"/>
</clipPath>
</defs>
</svg>
