<svg width="404" height="274" viewBox="0 0 404 274" fill="none" xmlns="http://www.w3.org/2000/svg">
<g filter="url(#filter0_d_112_1721)">
<g clip-path="url(#clip0_112_1721)">
<rect x="2" width="400" height="270" rx="8" fill="#F0F0F1"/>
<rect x="2" width="400" height="270" rx="8" fill="white"/>
<rect x="208" y="63" width="107" height="10" rx="2" fill="#E0E0E0"/>
<rect x="208.5" y="187.5" width="79" height="19" rx="1.5" stroke="#E0E0E0"/>
<rect x="208" y="85" width="50" height="5" rx="2" fill="#E0E0E0"/>
<rect x="208" y="102" width="20" height="3" rx="1.5" fill="#E0E0E0"/>
<rect x="208" y="109" width="24" height="3" rx="1.5" fill="#E0E0E0"/>
<rect x="208.5" y="135.5" width="19" height="19" stroke="#BBBDBE"/>
<rect x="210" y="137" width="16" height="16" fill="#BBBDBE"/>
<rect x="232.5" y="135.5" width="19" height="19" stroke="#ECECEC"/>
<rect x="234" y="137" width="16" height="16" fill="#BBBDBE"/>
<rect x="90" y="63" width="94" height="94" fill="black"/>
<path d="M164.27 131.452L149.27 98.9525C148.9 98.1525 148.138 97.6075 147.263 97.515C146.378 97.4225 145.53 97.795 145 98.5L131.5 116.5L123.5 110.5C122.905 110.055 122.145 109.895 121.425 110.065C120.703 110.235 120.095 110.717 119.763 111.38L109.763 131.38C109.375 132.155 109.418 133.075 109.873 133.812C110.328 134.55 111.133 135 112 135H162C162.853 135 163.648 134.565 164.105 133.847C164.565 133.13 164.628 132.227 164.27 131.452Z" fill="white"/>
<path d="M127 100C131.142 100 134.5 96.6421 134.5 92.5C134.5 88.3579 131.142 85 127 85C122.858 85 119.5 88.3579 119.5 92.5C119.5 96.6421 122.858 100 127 100Z" fill="white"/>
<rect x="90" y="159" width="30" height="30" fill="black"/>
<path d="M115.908 182.581L109.908 169.581C109.76 169.261 109.455 169.043 109.105 169.006C108.751 168.969 108.412 169.118 108.2 169.4L102.8 176.6L99.6 174.2C99.362 174.022 99.058 173.958 98.77 174.026C98.481 174.094 98.238 174.287 98.105 174.552L94.105 182.552C93.95 182.862 93.967 183.23 94.149 183.525C94.331 183.82 94.653 184 95 184H115C115.341 184 115.659 183.826 115.842 183.539C116.026 183.252 116.051 182.891 115.908 182.581Z" fill="white"/>
<path d="M101 170C102.657 170 104 168.657 104 167C104 165.343 102.657 164 101 164C99.3431 164 98 165.343 98 167C98 168.657 99.3431 170 101 170Z" fill="white"/>
<rect x="122" y="159" width="30" height="30" fill="black"/>
<path d="M147.908 182.581L141.908 169.581C141.76 169.261 141.455 169.043 141.105 169.006C140.751 168.969 140.412 169.118 140.2 169.4L134.8 176.6L131.6 174.2C131.362 174.022 131.058 173.958 130.77 174.026C130.481 174.094 130.238 174.287 130.105 174.552L126.105 182.552C125.95 182.862 125.967 183.23 126.149 183.525C126.331 183.82 126.653 184 127 184H147C147.341 184 147.659 183.826 147.842 183.539C148.026 183.252 148.051 182.891 147.908 182.581Z" fill="white"/>
<path d="M133 170C134.657 170 136 168.657 136 167C136 165.343 134.657 164 133 164C131.343 164 130 165.343 130 167C130 168.657 131.343 170 133 170Z" fill="white"/>
<rect x="154" y="159" width="30" height="30" fill="black"/>
<path d="M179.908 182.581L173.908 169.581C173.76 169.261 173.455 169.043 173.105 169.006C172.751 168.969 172.412 169.118 172.2 169.4L166.8 176.6L163.6 174.2C163.362 174.022 163.058 173.958 162.77 174.026C162.481 174.094 162.238 174.287 162.105 174.552L158.105 182.552C157.95 182.862 157.967 183.23 158.149 183.525C158.331 183.82 158.653 184 159 184H179C179.341 184 179.659 183.826 179.842 183.539C180.026 183.252 180.051 182.891 179.908 182.581Z" fill="white"/>
<path d="M165 170C166.657 170 168 168.657 168 167C168 165.343 166.657 164 165 164C163.343 164 162 165.343 162 167C162 168.657 163.343 170 165 170Z" fill="white"/>
<rect x="1" width="401" height="19" fill="#E0E0E0"/>
</g>
<rect x="2.5" y="0.5" width="399" height="269" rx="7.5" stroke="#E0E0E0"/>
</g>
<defs>
<filter id="filter0_d_112_1721" x="0" y="0" width="404" height="274" filterUnits="userSpaceOnUse" color-interpolation-filters="sRGB">
<feFlood flood-opacity="0" result="BackgroundImageFix"/>
<feColorMatrix in="SourceAlpha" type="matrix" values="0 0 0 0 0 0 0 0 0 0 0 0 0 0 0 0 0 0 127 0" result="hardAlpha"/>
<feOffset dy="2"/>
<feGaussianBlur stdDeviation="1"/>
<feComposite in2="hardAlpha" operator="out"/>
<feColorMatrix type="matrix" values="0 0 0 0 0 0 0 0 0 0 0 0 0 0 0 0 0 0 0.04 0"/>
<feBlend mode="normal" in2="BackgroundImageFix" result="effect1_dropShadow_112_1721"/>
<feBlend mode="normal" in="SourceGraphic" in2="effect1_dropShadow_112_1721" result="shape"/>
</filter>
<clipPath id="clip0_112_1721">
<rect x="2" width="400" height="270" rx="8" fill="white"/>
</clipPath>
</defs>
</svg>
