<svg width="404" height="274" viewBox="0 0 404 274" fill="none" xmlns="http://www.w3.org/2000/svg">
<g filter="url(#filter0_d_101_29)">
<g clip-path="url(#clip0_101_29)">
<rect x="2" width="400" height="270" rx="8" fill="#F0F0F1"/>
<rect x="2" width="400" height="270" rx="8" fill="white"/>
<rect x="234" y="85" width="50" height="5" rx="2" fill="#1D2327" fill-opacity="0.3"/>
<rect x="234" y="94" width="20" height="3" rx="1.5" fill="#1D2327" fill-opacity="0.3"/>
<rect x="234.5" y="132.5" width="119" height="13" rx="1.5" fill="white" stroke="#1D2327"/>
<rect x="234" y="125" width="24" height="3" rx="1.5" fill="#1D2327" fill-opacity="0.3"/>
<rect x="234.5" y="161.5" width="119" height="23" rx="1.5" fill="white" stroke="#BBBDBE"/>
<rect x="234" y="154" width="24" height="3" rx="1.5" fill="#1D2327" fill-opacity="0.3"/>
<mask id="path-9-inside-1_101_29" fill="white">
<path d="M239.786 109.135L238.016 108.878L237.224 107.274C237.201 107.235 237.168 107.202 237.129 107.179C237.089 107.157 237.045 107.145 236.999 107.145C236.953 107.145 236.909 107.157 236.869 107.179C236.83 107.202 236.797 107.235 236.774 107.274L235.984 108.878L234.214 109.135C234.168 109.142 234.124 109.161 234.089 109.191C234.053 109.221 234.027 109.261 234.012 109.305C233.998 109.35 233.996 109.397 234.007 109.442C234.018 109.488 234.042 109.529 234.076 109.562L235.357 110.812L235.054 112.575C235.046 112.621 235.051 112.668 235.068 112.711C235.086 112.754 235.115 112.792 235.153 112.819C235.191 112.847 235.236 112.863 235.282 112.866C235.329 112.87 235.375 112.86 235.417 112.838L237 112.004L238.584 112.837C238.619 112.855 238.659 112.865 238.7 112.865C238.736 112.865 238.772 112.857 238.805 112.842C238.838 112.827 238.867 112.804 238.891 112.776C238.914 112.749 238.932 112.716 238.941 112.681C238.951 112.646 238.953 112.609 238.947 112.573L238.644 110.81L239.925 109.56C239.958 109.527 239.982 109.486 239.993 109.441C240.004 109.396 240.002 109.348 239.988 109.304C239.973 109.259 239.947 109.22 239.911 109.19C239.876 109.16 239.832 109.14 239.786 109.134V109.135Z"/>
</mask>
<path d="M239.786 109.135L239.642 110.125L240.786 110.291V109.135H239.786ZM238.016 108.878L237.119 109.321L237.352 109.792L237.872 109.868L238.016 108.878ZM237.224 107.274L238.121 106.831L238.105 106.8L238.088 106.77L237.224 107.274ZM236.999 107.145V108.145V107.145ZM236.774 107.274L235.91 106.77L235.893 106.801L235.877 106.832L236.774 107.274ZM235.984 108.878L236.128 109.868L236.649 109.792L236.881 109.32L235.984 108.878ZM234.214 109.135L234.07 108.145L234.07 108.145L234.214 109.135ZM234.076 109.562L234.774 108.846L234.773 108.845L234.076 109.562ZM235.357 110.812L236.342 110.981L236.431 110.463L236.055 110.096L235.357 110.812ZM235.054 112.575L236.039 112.744L236.039 112.744L235.054 112.575ZM235.417 112.838L234.951 111.953L234.95 111.953L235.417 112.838ZM237 112.004L237.465 111.119L237 110.874L236.534 111.119L237 112.004ZM238.584 112.837L239.053 111.953L239.049 111.951L238.584 112.837ZM238.7 112.865L238.702 111.865L238.693 111.865L238.7 112.865ZM238.947 112.573L239.932 112.405L239.932 112.404L238.947 112.573ZM238.644 110.81L237.945 110.094L237.569 110.461L237.658 110.979L238.644 110.81ZM239.925 109.56L239.227 108.844L239.226 108.844L239.925 109.56ZM239.786 109.134L239.93 108.144L238.786 107.978V109.134H239.786ZM239.93 108.145L238.16 107.888L237.872 109.868L239.642 110.125L239.93 108.145ZM238.913 108.435L238.121 106.831L236.327 107.717L237.119 109.321L238.913 108.435ZM238.088 106.77C237.977 106.58 237.818 106.422 237.627 106.312L236.631 108.047C236.519 107.982 236.425 107.89 236.36 107.778L238.088 106.77ZM237.627 106.312C237.436 106.203 237.219 106.145 236.999 106.145V108.145C236.87 108.145 236.743 108.111 236.631 108.047L237.627 106.312ZM236.999 106.145C236.779 106.145 236.562 106.203 236.371 106.312L237.367 108.047C237.255 108.111 237.128 108.145 236.999 108.145V106.145ZM236.371 106.312C236.18 106.422 236.021 106.58 235.91 106.77L237.638 107.778C237.573 107.89 237.479 107.982 237.367 108.047L236.371 106.312ZM235.877 106.832L235.087 108.436L236.881 109.32L237.671 107.716L235.877 106.832ZM235.84 107.888L234.07 108.145L234.358 110.125L236.128 109.868L235.84 107.888ZM234.07 108.145C233.839 108.179 233.623 108.276 233.444 108.427L234.733 109.956C234.626 110.046 234.496 110.105 234.358 110.125L234.07 108.145ZM233.444 108.427C233.266 108.577 233.133 108.774 233.061 108.996L234.963 109.614C234.92 109.747 234.84 109.866 234.733 109.956L233.444 108.427ZM233.061 108.996C232.989 109.218 232.98 109.456 233.036 109.682L234.978 109.202C235.012 109.338 235.007 109.481 234.963 109.614L233.061 108.996ZM233.036 109.682C233.092 109.909 233.211 110.115 233.378 110.278L234.773 108.845C234.873 108.943 234.944 109.067 234.978 109.202L233.036 109.682ZM233.377 110.277L234.658 111.527L236.055 110.096L234.774 108.846L233.377 110.277ZM234.371 110.642L234.068 112.405L236.039 112.744L236.342 110.981L234.371 110.642ZM234.068 112.405C234.028 112.635 234.054 112.872 234.142 113.088L235.995 112.334C236.047 112.464 236.063 112.606 236.039 112.744L234.068 112.405ZM234.142 113.088C234.23 113.304 234.377 113.491 234.566 113.628L235.74 112.01C235.854 112.092 235.942 112.205 235.995 112.334L234.142 113.088ZM234.566 113.628C234.754 113.766 234.978 113.847 235.211 113.864L235.353 111.869C235.493 111.879 235.627 111.928 235.74 112.01L234.566 113.628ZM235.211 113.864C235.444 113.88 235.677 113.831 235.883 113.723L234.95 111.953C235.074 111.888 235.214 111.859 235.353 111.869L235.211 113.864ZM235.883 113.723L237.466 112.889L236.534 111.119L234.951 111.953L235.883 113.723ZM236.535 112.889L238.118 113.722L239.049 111.951L237.465 111.119L236.535 112.889ZM238.114 113.72C238.297 113.816 238.5 113.866 238.706 113.865L238.693 111.865C238.818 111.864 238.942 111.895 239.053 111.953L238.114 113.72ZM238.697 113.865C238.879 113.865 239.059 113.826 239.225 113.75L238.385 111.934C238.484 111.888 238.592 111.865 238.702 111.865L238.697 113.865ZM239.225 113.75C239.39 113.673 239.537 113.561 239.654 113.422L238.127 112.131C238.198 112.047 238.286 111.98 238.385 111.934L239.225 113.75ZM239.654 113.422C239.772 113.283 239.858 113.12 239.906 112.944L237.977 112.417C238.005 112.312 238.057 112.214 238.127 112.131L239.654 113.422ZM239.906 112.944C239.954 112.769 239.963 112.585 239.932 112.405L237.961 112.741C237.942 112.633 237.948 112.523 237.977 112.417L239.906 112.944ZM239.932 112.404L239.629 110.641L237.658 110.979L237.961 112.742L239.932 112.404ZM239.342 111.526L240.623 110.276L239.226 108.844L237.945 110.094L239.342 111.526ZM240.622 110.276C240.789 110.114 240.908 109.907 240.964 109.681L239.022 109.201C239.056 109.065 239.127 108.941 239.227 108.844L240.622 110.276ZM240.964 109.681C241.02 109.454 241.011 109.217 240.939 108.995L239.037 109.613C238.994 109.479 238.988 109.337 239.022 109.201L240.964 109.681ZM240.939 108.995C240.867 108.773 240.734 108.576 240.556 108.425L239.267 109.954C239.16 109.864 239.08 109.746 239.037 109.613L240.939 108.995ZM240.556 108.425C240.377 108.275 240.161 108.177 239.93 108.144L239.642 110.123C239.504 110.103 239.374 110.045 239.267 109.954L240.556 108.425ZM238.786 109.134V109.135H240.786V109.134H238.786Z" fill="#BBBDBE" mask="url(#path-9-inside-1_101_29)"/>
<mask id="path-11-inside-2_101_29" fill="white">
<path d="M247.786 109.135L246.016 108.878L245.224 107.274C245.201 107.235 245.168 107.202 245.129 107.179C245.089 107.157 245.045 107.145 244.999 107.145C244.953 107.145 244.909 107.157 244.869 107.179C244.83 107.202 244.797 107.235 244.774 107.274L243.984 108.878L242.214 109.135C242.168 109.142 242.124 109.161 242.089 109.191C242.053 109.221 242.027 109.261 242.012 109.305C241.998 109.35 241.996 109.397 242.007 109.442C242.018 109.488 242.042 109.529 242.076 109.562L243.357 110.812L243.054 112.575C243.046 112.621 243.051 112.668 243.068 112.711C243.086 112.754 243.115 112.792 243.153 112.819C243.191 112.847 243.236 112.863 243.282 112.866C243.329 112.87 243.375 112.86 243.417 112.838L245 112.004L246.584 112.837C246.619 112.855 246.659 112.865 246.7 112.865C246.736 112.865 246.772 112.857 246.805 112.842C246.838 112.827 246.867 112.804 246.891 112.776C246.914 112.749 246.932 112.716 246.941 112.681C246.951 112.646 246.953 112.609 246.947 112.573L246.644 110.81L247.925 109.56C247.958 109.527 247.982 109.486 247.993 109.441C248.004 109.396 248.002 109.348 247.988 109.304C247.973 109.259 247.947 109.22 247.911 109.19C247.876 109.16 247.832 109.14 247.786 109.134V109.135Z"/>
</mask>
<path d="M247.786 109.135L247.642 110.125L248.786 110.291V109.135H247.786ZM246.016 108.878L245.119 109.321L245.352 109.792L245.872 109.868L246.016 108.878ZM245.224 107.274L246.121 106.831L246.105 106.8L246.088 106.77L245.224 107.274ZM244.999 107.145V108.145V107.145ZM244.774 107.274L243.91 106.77L243.893 106.801L243.877 106.832L244.774 107.274ZM243.984 108.878L244.128 109.868L244.649 109.792L244.881 109.32L243.984 108.878ZM242.214 109.135L242.07 108.145L242.07 108.145L242.214 109.135ZM242.076 109.562L242.774 108.846L242.773 108.845L242.076 109.562ZM243.357 110.812L244.342 110.981L244.431 110.463L244.055 110.096L243.357 110.812ZM243.054 112.575L244.039 112.744L244.039 112.744L243.054 112.575ZM243.417 112.838L242.951 111.953L242.95 111.953L243.417 112.838ZM245 112.004L245.465 111.119L245 110.874L244.534 111.119L245 112.004ZM246.584 112.837L247.053 111.953L247.049 111.951L246.584 112.837ZM246.7 112.865L246.702 111.865L246.693 111.865L246.7 112.865ZM246.947 112.573L247.932 112.405L247.932 112.404L246.947 112.573ZM246.644 110.81L245.945 110.094L245.569 110.461L245.658 110.979L246.644 110.81ZM247.925 109.56L247.227 108.844L247.226 108.844L247.925 109.56ZM247.786 109.134L247.93 108.144L246.786 107.978V109.134H247.786ZM247.93 108.145L246.16 107.888L245.872 109.868L247.642 110.125L247.93 108.145ZM246.913 108.435L246.121 106.831L244.327 107.717L245.119 109.321L246.913 108.435ZM246.088 106.77C245.977 106.58 245.818 106.422 245.627 106.312L244.631 108.047C244.519 107.982 244.425 107.89 244.36 107.778L246.088 106.77ZM245.627 106.312C245.436 106.203 245.219 106.145 244.999 106.145V108.145C244.87 108.145 244.743 108.111 244.631 108.047L245.627 106.312ZM244.999 106.145C244.779 106.145 244.562 106.203 244.371 106.312L245.367 108.047C245.255 108.111 245.128 108.145 244.999 108.145V106.145ZM244.371 106.312C244.18 106.422 244.021 106.58 243.91 106.77L245.638 107.778C245.573 107.89 245.479 107.982 245.367 108.047L244.371 106.312ZM243.877 106.832L243.087 108.436L244.881 109.32L245.671 107.716L243.877 106.832ZM243.84 107.888L242.07 108.145L242.358 110.125L244.128 109.868L243.84 107.888ZM242.07 108.145C241.839 108.179 241.623 108.276 241.444 108.427L242.733 109.956C242.626 110.046 242.496 110.105 242.358 110.125L242.07 108.145ZM241.444 108.427C241.266 108.577 241.133 108.774 241.061 108.996L242.963 109.614C242.92 109.747 242.84 109.866 242.733 109.956L241.444 108.427ZM241.061 108.996C240.989 109.218 240.98 109.456 241.036 109.682L242.978 109.202C243.012 109.338 243.007 109.481 242.963 109.614L241.061 108.996ZM241.036 109.682C241.092 109.909 241.211 110.115 241.378 110.278L242.773 108.845C242.873 108.943 242.944 109.067 242.978 109.202L241.036 109.682ZM241.377 110.277L242.658 111.527L244.055 110.096L242.774 108.846L241.377 110.277ZM242.371 110.642L242.068 112.405L244.039 112.744L244.342 110.981L242.371 110.642ZM242.068 112.405C242.028 112.635 242.054 112.872 242.142 113.088L243.995 112.334C244.047 112.464 244.063 112.606 244.039 112.744L242.068 112.405ZM242.142 113.088C242.23 113.304 242.377 113.491 242.566 113.628L243.74 112.01C243.854 112.092 243.942 112.205 243.995 112.334L242.142 113.088ZM242.566 113.628C242.754 113.766 242.978 113.847 243.211 113.864L243.353 111.869C243.493 111.879 243.627 111.928 243.74 112.01L242.566 113.628ZM243.211 113.864C243.444 113.88 243.677 113.831 243.883 113.723L242.95 111.953C243.074 111.888 243.214 111.859 243.353 111.869L243.211 113.864ZM243.883 113.723L245.466 112.889L244.534 111.119L242.951 111.953L243.883 113.723ZM244.535 112.889L246.118 113.722L247.049 111.951L245.465 111.119L244.535 112.889ZM246.114 113.72C246.297 113.816 246.5 113.866 246.706 113.865L246.693 111.865C246.818 111.864 246.942 111.895 247.053 111.953L246.114 113.72ZM246.697 113.865C246.879 113.865 247.059 113.826 247.225 113.75L246.385 111.934C246.484 111.888 246.592 111.865 246.702 111.865L246.697 113.865ZM247.225 113.75C247.39 113.673 247.537 113.561 247.654 113.422L246.127 112.131C246.198 112.047 246.286 111.98 246.385 111.934L247.225 113.75ZM247.654 113.422C247.772 113.283 247.858 113.12 247.906 112.944L245.977 112.417C246.005 112.312 246.057 112.214 246.127 112.131L247.654 113.422ZM247.906 112.944C247.954 112.769 247.963 112.585 247.932 112.405L245.961 112.741C245.942 112.633 245.948 112.523 245.977 112.417L247.906 112.944ZM247.932 112.404L247.629 110.641L245.658 110.979L245.961 112.742L247.932 112.404ZM247.342 111.526L248.623 110.276L247.226 108.844L245.945 110.094L247.342 111.526ZM248.622 110.276C248.789 110.114 248.908 109.907 248.964 109.681L247.022 109.201C247.056 109.065 247.127 108.941 247.227 108.844L248.622 110.276ZM248.964 109.681C249.02 109.454 249.011 109.217 248.939 108.995L247.037 109.613C246.994 109.479 246.988 109.337 247.022 109.201L248.964 109.681ZM248.939 108.995C248.867 108.773 248.734 108.576 248.556 108.425L247.267 109.954C247.16 109.864 247.08 109.746 247.037 109.613L248.939 108.995ZM248.556 108.425C248.377 108.275 248.161 108.177 247.93 108.144L247.642 110.123C247.504 110.103 247.374 110.045 247.267 109.954L248.556 108.425ZM246.786 109.134V109.135H248.786V109.134H246.786Z" fill="#BBBDBE" mask="url(#path-11-inside-2_101_29)"/>
<mask id="path-13-inside-3_101_29" fill="white">
<path d="M255.786 109.135L254.016 108.878L253.224 107.274C253.201 107.235 253.168 107.202 253.129 107.179C253.089 107.157 253.045 107.145 252.999 107.145C252.953 107.145 252.909 107.157 252.869 107.179C252.83 107.202 252.797 107.235 252.774 107.274L251.984 108.878L250.214 109.135C250.168 109.142 250.124 109.161 250.089 109.191C250.053 109.221 250.027 109.261 250.012 109.305C249.998 109.35 249.996 109.397 250.007 109.442C250.018 109.488 250.042 109.529 250.076 109.562L251.357 110.812L251.054 112.575C251.046 112.621 251.051 112.668 251.068 112.711C251.086 112.754 251.115 112.792 251.153 112.819C251.191 112.847 251.236 112.863 251.282 112.866C251.329 112.87 251.375 112.86 251.417 112.838L253 112.004L254.584 112.837C254.619 112.855 254.659 112.865 254.7 112.865C254.736 112.865 254.772 112.857 254.805 112.842C254.838 112.827 254.867 112.804 254.891 112.776C254.914 112.749 254.932 112.716 254.941 112.681C254.951 112.646 254.953 112.609 254.947 112.573L254.644 110.81L255.925 109.56C255.958 109.527 255.982 109.486 255.993 109.441C256.004 109.396 256.002 109.348 255.988 109.304C255.973 109.259 255.947 109.22 255.911 109.19C255.876 109.16 255.832 109.14 255.786 109.134V109.135Z"/>
</mask>
<path d="M255.786 109.135L255.642 110.125L256.786 110.291V109.135H255.786ZM254.016 108.878L253.119 109.321L253.352 109.792L253.872 109.868L254.016 108.878ZM253.224 107.274L254.121 106.831L254.105 106.8L254.088 106.77L253.224 107.274ZM252.999 107.145V108.145V107.145ZM252.774 107.274L251.91 106.77L251.893 106.801L251.877 106.832L252.774 107.274ZM251.984 108.878L252.128 109.868L252.649 109.792L252.881 109.32L251.984 108.878ZM250.214 109.135L250.07 108.145L250.07 108.145L250.214 109.135ZM250.076 109.562L250.774 108.846L250.773 108.845L250.076 109.562ZM251.357 110.812L252.342 110.981L252.431 110.463L252.055 110.096L251.357 110.812ZM251.054 112.575L252.039 112.744L252.039 112.744L251.054 112.575ZM251.417 112.838L250.951 111.953L250.95 111.953L251.417 112.838ZM253 112.004L253.465 111.119L253 110.874L252.534 111.119L253 112.004ZM254.584 112.837L255.053 111.953L255.049 111.951L254.584 112.837ZM254.7 112.865L254.702 111.865L254.693 111.865L254.7 112.865ZM254.947 112.573L255.932 112.405L255.932 112.404L254.947 112.573ZM254.644 110.81L253.945 110.094L253.569 110.461L253.658 110.979L254.644 110.81ZM255.925 109.56L255.227 108.844L255.226 108.844L255.925 109.56ZM255.786 109.134L255.93 108.144L254.786 107.978V109.134H255.786ZM255.93 108.145L254.16 107.888L253.872 109.868L255.642 110.125L255.93 108.145ZM254.913 108.435L254.121 106.831L252.327 107.717L253.119 109.321L254.913 108.435ZM254.088 106.77C253.977 106.58 253.818 106.422 253.627 106.312L252.631 108.047C252.519 107.982 252.425 107.89 252.36 107.778L254.088 106.77ZM253.627 106.312C253.436 106.203 253.219 106.145 252.999 106.145V108.145C252.87 108.145 252.743 108.111 252.631 108.047L253.627 106.312ZM252.999 106.145C252.779 106.145 252.562 106.203 252.371 106.312L253.367 108.047C253.255 108.111 253.128 108.145 252.999 108.145V106.145ZM252.371 106.312C252.18 106.422 252.021 106.58 251.91 106.77L253.638 107.778C253.573 107.89 253.479 107.982 253.367 108.047L252.371 106.312ZM251.877 106.832L251.087 108.436L252.881 109.32L253.671 107.716L251.877 106.832ZM251.84 107.888L250.07 108.145L250.358 110.125L252.128 109.868L251.84 107.888ZM250.07 108.145C249.839 108.179 249.623 108.276 249.444 108.427L250.733 109.956C250.626 110.046 250.496 110.105 250.358 110.125L250.07 108.145ZM249.444 108.427C249.266 108.577 249.133 108.774 249.061 108.996L250.963 109.614C250.92 109.747 250.84 109.866 250.733 109.956L249.444 108.427ZM249.061 108.996C248.989 109.218 248.98 109.456 249.036 109.682L250.978 109.202C251.012 109.338 251.007 109.481 250.963 109.614L249.061 108.996ZM249.036 109.682C249.092 109.909 249.211 110.115 249.378 110.278L250.773 108.845C250.873 108.943 250.944 109.067 250.978 109.202L249.036 109.682ZM249.377 110.277L250.658 111.527L252.055 110.096L250.774 108.846L249.377 110.277ZM250.371 110.642L250.068 112.405L252.039 112.744L252.342 110.981L250.371 110.642ZM250.068 112.405C250.028 112.635 250.054 112.872 250.142 113.088L251.995 112.334C252.047 112.464 252.063 112.606 252.039 112.744L250.068 112.405ZM250.142 113.088C250.23 113.304 250.377 113.491 250.566 113.628L251.74 112.01C251.854 112.092 251.942 112.205 251.995 112.334L250.142 113.088ZM250.566 113.628C250.754 113.766 250.978 113.847 251.211 113.864L251.353 111.869C251.493 111.879 251.627 111.928 251.74 112.01L250.566 113.628ZM251.211 113.864C251.444 113.88 251.677 113.831 251.883 113.723L250.95 111.953C251.074 111.888 251.214 111.859 251.353 111.869L251.211 113.864ZM251.883 113.723L253.466 112.889L252.534 111.119L250.951 111.953L251.883 113.723ZM252.535 112.889L254.118 113.722L255.049 111.951L253.465 111.119L252.535 112.889ZM254.114 113.72C254.297 113.816 254.5 113.866 254.706 113.865L254.693 111.865C254.818 111.864 254.942 111.895 255.053 111.953L254.114 113.72ZM254.697 113.865C254.879 113.865 255.059 113.826 255.225 113.75L254.385 111.934C254.484 111.888 254.592 111.865 254.702 111.865L254.697 113.865ZM255.225 113.75C255.39 113.673 255.537 113.561 255.654 113.422L254.127 112.131C254.198 112.047 254.286 111.98 254.385 111.934L255.225 113.75ZM255.654 113.422C255.772 113.283 255.858 113.12 255.906 112.944L253.977 112.417C254.005 112.312 254.057 112.214 254.127 112.131L255.654 113.422ZM255.906 112.944C255.954 112.769 255.963 112.585 255.932 112.405L253.961 112.741C253.942 112.633 253.948 112.523 253.977 112.417L255.906 112.944ZM255.932 112.404L255.629 110.641L253.658 110.979L253.961 112.742L255.932 112.404ZM255.342 111.526L256.623 110.276L255.226 108.844L253.945 110.094L255.342 111.526ZM256.622 110.276C256.789 110.114 256.908 109.907 256.964 109.681L255.022 109.201C255.056 109.065 255.127 108.941 255.227 108.844L256.622 110.276ZM256.964 109.681C257.02 109.454 257.011 109.217 256.939 108.995L255.037 109.613C254.994 109.479 254.988 109.337 255.022 109.201L256.964 109.681ZM256.939 108.995C256.867 108.773 256.734 108.576 256.556 108.425L255.267 109.954C255.16 109.864 255.08 109.746 255.037 109.613L256.939 108.995ZM256.556 108.425C256.377 108.275 256.161 108.177 255.93 108.144L255.642 110.123C255.504 110.103 255.374 110.045 255.267 109.954L256.556 108.425ZM254.786 109.134V109.135H256.786V109.134H254.786Z" fill="#BBBDBE" mask="url(#path-13-inside-3_101_29)"/>
<mask id="path-15-inside-4_101_29" fill="white">
<path d="M263.786 109.135L262.016 108.878L261.224 107.274C261.201 107.235 261.168 107.202 261.129 107.179C261.089 107.157 261.045 107.145 260.999 107.145C260.953 107.145 260.909 107.157 260.869 107.179C260.83 107.202 260.797 107.235 260.774 107.274L259.984 108.878L258.214 109.135C258.168 109.142 258.124 109.161 258.089 109.191C258.053 109.221 258.027 109.261 258.012 109.305C257.998 109.35 257.996 109.397 258.007 109.442C258.018 109.488 258.042 109.529 258.076 109.562L259.357 110.812L259.054 112.575C259.046 112.621 259.051 112.668 259.068 112.711C259.086 112.754 259.115 112.792 259.153 112.819C259.191 112.847 259.236 112.863 259.282 112.866C259.329 112.87 259.375 112.86 259.417 112.838L261 112.004L262.584 112.837C262.619 112.855 262.659 112.865 262.7 112.865C262.736 112.865 262.772 112.857 262.805 112.842C262.838 112.827 262.867 112.804 262.891 112.776C262.914 112.749 262.932 112.716 262.941 112.681C262.951 112.646 262.953 112.609 262.947 112.573L262.644 110.81L263.925 109.56C263.958 109.527 263.982 109.486 263.993 109.441C264.004 109.396 264.002 109.348 263.988 109.304C263.973 109.259 263.947 109.22 263.911 109.19C263.876 109.16 263.832 109.14 263.786 109.134V109.135Z"/>
</mask>
<path d="M263.786 109.135L263.642 110.125L264.786 110.291V109.135H263.786ZM262.016 108.878L261.119 109.321L261.352 109.792L261.872 109.868L262.016 108.878ZM261.224 107.274L262.121 106.831L262.105 106.8L262.088 106.77L261.224 107.274ZM260.999 107.145V108.145V107.145ZM260.774 107.274L259.91 106.77L259.893 106.801L259.877 106.832L260.774 107.274ZM259.984 108.878L260.128 109.868L260.649 109.792L260.881 109.32L259.984 108.878ZM258.214 109.135L258.07 108.145L258.07 108.145L258.214 109.135ZM258.076 109.562L258.774 108.846L258.773 108.845L258.076 109.562ZM259.357 110.812L260.342 110.981L260.431 110.463L260.055 110.096L259.357 110.812ZM259.054 112.575L260.039 112.744L260.039 112.744L259.054 112.575ZM259.417 112.838L258.951 111.953L258.95 111.953L259.417 112.838ZM261 112.004L261.465 111.119L261 110.874L260.534 111.119L261 112.004ZM262.584 112.837L263.053 111.953L263.049 111.951L262.584 112.837ZM262.7 112.865L262.702 111.865L262.693 111.865L262.7 112.865ZM262.947 112.573L263.932 112.405L263.932 112.404L262.947 112.573ZM262.644 110.81L261.945 110.094L261.569 110.461L261.658 110.979L262.644 110.81ZM263.925 109.56L263.227 108.844L263.226 108.844L263.925 109.56ZM263.786 109.134L263.93 108.144L262.786 107.978V109.134H263.786ZM263.93 108.145L262.16 107.888L261.872 109.868L263.642 110.125L263.93 108.145ZM262.913 108.435L262.121 106.831L260.327 107.717L261.119 109.321L262.913 108.435ZM262.088 106.77C261.977 106.58 261.818 106.422 261.627 106.312L260.631 108.047C260.519 107.982 260.425 107.89 260.36 107.778L262.088 106.77ZM261.627 106.312C261.436 106.203 261.219 106.145 260.999 106.145V108.145C260.87 108.145 260.743 108.111 260.631 108.047L261.627 106.312ZM260.999 106.145C260.779 106.145 260.562 106.203 260.371 106.312L261.367 108.047C261.255 108.111 261.128 108.145 260.999 108.145V106.145ZM260.371 106.312C260.18 106.422 260.021 106.58 259.91 106.77L261.638 107.778C261.573 107.89 261.479 107.982 261.367 108.047L260.371 106.312ZM259.877 106.832L259.087 108.436L260.881 109.32L261.671 107.716L259.877 106.832ZM259.84 107.888L258.07 108.145L258.358 110.125L260.128 109.868L259.84 107.888ZM258.07 108.145C257.839 108.179 257.623 108.276 257.444 108.427L258.733 109.956C258.626 110.046 258.496 110.105 258.358 110.125L258.07 108.145ZM257.444 108.427C257.266 108.577 257.133 108.774 257.061 108.996L258.963 109.614C258.92 109.747 258.84 109.866 258.733 109.956L257.444 108.427ZM257.061 108.996C256.989 109.218 256.98 109.456 257.036 109.682L258.978 109.202C259.012 109.338 259.007 109.481 258.963 109.614L257.061 108.996ZM257.036 109.682C257.092 109.909 257.211 110.115 257.378 110.278L258.773 108.845C258.873 108.943 258.944 109.067 258.978 109.202L257.036 109.682ZM257.377 110.277L258.658 111.527L260.055 110.096L258.774 108.846L257.377 110.277ZM258.371 110.642L258.068 112.405L260.039 112.744L260.342 110.981L258.371 110.642ZM258.068 112.405C258.028 112.635 258.054 112.872 258.142 113.088L259.995 112.334C260.047 112.464 260.063 112.606 260.039 112.744L258.068 112.405ZM258.142 113.088C258.23 113.304 258.377 113.491 258.566 113.628L259.74 112.01C259.854 112.092 259.942 112.205 259.995 112.334L258.142 113.088ZM258.566 113.628C258.754 113.766 258.978 113.847 259.211 113.864L259.353 111.869C259.493 111.879 259.627 111.928 259.74 112.01L258.566 113.628ZM259.211 113.864C259.444 113.88 259.677 113.831 259.883 113.723L258.95 111.953C259.074 111.888 259.214 111.859 259.353 111.869L259.211 113.864ZM259.883 113.723L261.466 112.889L260.534 111.119L258.951 111.953L259.883 113.723ZM260.535 112.889L262.118 113.722L263.049 111.951L261.465 111.119L260.535 112.889ZM262.114 113.72C262.297 113.816 262.5 113.866 262.706 113.865L262.693 111.865C262.818 111.864 262.942 111.895 263.053 111.953L262.114 113.72ZM262.697 113.865C262.879 113.865 263.059 113.826 263.225 113.75L262.385 111.934C262.484 111.888 262.592 111.865 262.702 111.865L262.697 113.865ZM263.225 113.75C263.39 113.673 263.537 113.561 263.654 113.422L262.127 112.131C262.198 112.047 262.286 111.98 262.385 111.934L263.225 113.75ZM263.654 113.422C263.772 113.283 263.858 113.12 263.906 112.944L261.977 112.417C262.005 112.312 262.057 112.214 262.127 112.131L263.654 113.422ZM263.906 112.944C263.954 112.769 263.963 112.585 263.932 112.405L261.961 112.741C261.942 112.633 261.948 112.523 261.977 112.417L263.906 112.944ZM263.932 112.404L263.629 110.641L261.658 110.979L261.961 112.742L263.932 112.404ZM263.342 111.526L264.623 110.276L263.226 108.844L261.945 110.094L263.342 111.526ZM264.622 110.276C264.789 110.114 264.908 109.907 264.964 109.681L263.022 109.201C263.056 109.065 263.127 108.941 263.227 108.844L264.622 110.276ZM264.964 109.681C265.02 109.454 265.011 109.217 264.939 108.995L263.037 109.613C262.994 109.479 262.988 109.337 263.022 109.201L264.964 109.681ZM264.939 108.995C264.867 108.773 264.734 108.576 264.556 108.425L263.267 109.954C263.16 109.864 263.08 109.746 263.037 109.613L264.939 108.995ZM264.556 108.425C264.377 108.275 264.161 108.177 263.93 108.144L263.642 110.123C263.504 110.103 263.374 110.045 263.267 109.954L264.556 108.425ZM262.786 109.134V109.135H264.786V109.134H262.786Z" fill="#BBBDBE" mask="url(#path-15-inside-4_101_29)"/>
<mask id="path-17-inside-5_101_29" fill="white">
<path d="M271.786 109.135L270.016 108.878L269.224 107.274C269.201 107.235 269.168 107.202 269.129 107.179C269.089 107.157 269.045 107.145 268.999 107.145C268.953 107.145 268.909 107.157 268.869 107.179C268.83 107.202 268.797 107.235 268.774 107.274L267.984 108.878L266.214 109.135C266.168 109.142 266.124 109.161 266.089 109.191C266.053 109.221 266.027 109.261 266.012 109.305C265.998 109.35 265.996 109.397 266.007 109.442C266.018 109.488 266.042 109.529 266.076 109.562L267.357 110.812L267.054 112.575C267.046 112.621 267.051 112.668 267.068 112.711C267.086 112.754 267.115 112.792 267.153 112.819C267.191 112.847 267.236 112.863 267.282 112.866C267.329 112.87 267.375 112.86 267.417 112.838L269 112.004L270.584 112.837C270.619 112.855 270.659 112.865 270.7 112.865C270.736 112.865 270.772 112.857 270.805 112.842C270.838 112.827 270.867 112.804 270.891 112.776C270.914 112.749 270.932 112.716 270.941 112.681C270.951 112.646 270.953 112.609 270.947 112.573L270.644 110.81L271.925 109.56C271.958 109.527 271.982 109.486 271.993 109.441C272.004 109.396 272.002 109.348 271.988 109.304C271.973 109.259 271.947 109.22 271.911 109.19C271.876 109.16 271.832 109.14 271.786 109.134V109.135Z"/>
</mask>
<path d="M271.786 109.135L271.642 110.125L272.786 110.291V109.135H271.786ZM270.016 108.878L269.119 109.321L269.352 109.792L269.872 109.868L270.016 108.878ZM269.224 107.274L270.121 106.831L270.105 106.8L270.088 106.77L269.224 107.274ZM268.999 107.145V108.145V107.145ZM268.774 107.274L267.91 106.77L267.893 106.801L267.877 106.832L268.774 107.274ZM267.984 108.878L268.128 109.868L268.649 109.792L268.881 109.32L267.984 108.878ZM266.214 109.135L266.07 108.145L266.07 108.145L266.214 109.135ZM266.076 109.562L266.774 108.846L266.773 108.845L266.076 109.562ZM267.357 110.812L268.342 110.981L268.431 110.463L268.055 110.096L267.357 110.812ZM267.054 112.575L268.039 112.744L268.039 112.744L267.054 112.575ZM267.417 112.838L266.951 111.953L266.95 111.953L267.417 112.838ZM269 112.004L269.465 111.119L269 110.874L268.534 111.119L269 112.004ZM270.584 112.837L271.053 111.953L271.049 111.951L270.584 112.837ZM270.7 112.865L270.702 111.865L270.693 111.865L270.7 112.865ZM270.947 112.573L271.932 112.405L271.932 112.404L270.947 112.573ZM270.644 110.81L269.945 110.094L269.569 110.461L269.658 110.979L270.644 110.81ZM271.925 109.56L271.227 108.844L271.226 108.844L271.925 109.56ZM271.786 109.134L271.93 108.144L270.786 107.978V109.134H271.786ZM271.93 108.145L270.16 107.888L269.872 109.868L271.642 110.125L271.93 108.145ZM270.913 108.435L270.121 106.831L268.327 107.717L269.119 109.321L270.913 108.435ZM270.088 106.77C269.977 106.58 269.818 106.422 269.627 106.312L268.631 108.047C268.519 107.982 268.425 107.89 268.36 107.778L270.088 106.77ZM269.627 106.312C269.436 106.203 269.219 106.145 268.999 106.145V108.145C268.87 108.145 268.743 108.111 268.631 108.047L269.627 106.312ZM268.999 106.145C268.779 106.145 268.562 106.203 268.371 106.312L269.367 108.047C269.255 108.111 269.128 108.145 268.999 108.145V106.145ZM268.371 106.312C268.18 106.422 268.021 106.58 267.91 106.77L269.638 107.778C269.573 107.89 269.479 107.982 269.367 108.047L268.371 106.312ZM267.877 106.832L267.087 108.436L268.881 109.32L269.671 107.716L267.877 106.832ZM267.84 107.888L266.07 108.145L266.358 110.125L268.128 109.868L267.84 107.888ZM266.07 108.145C265.839 108.179 265.623 108.276 265.444 108.427L266.733 109.956C266.626 110.046 266.496 110.105 266.358 110.125L266.07 108.145ZM265.444 108.427C265.266 108.577 265.133 108.774 265.061 108.996L266.963 109.614C266.92 109.747 266.84 109.866 266.733 109.956L265.444 108.427ZM265.061 108.996C264.989 109.218 264.98 109.456 265.036 109.682L266.978 109.202C267.012 109.338 267.007 109.481 266.963 109.614L265.061 108.996ZM265.036 109.682C265.092 109.909 265.211 110.115 265.378 110.278L266.773 108.845C266.873 108.943 266.944 109.067 266.978 109.202L265.036 109.682ZM265.377 110.277L266.658 111.527L268.055 110.096L266.774 108.846L265.377 110.277ZM266.371 110.642L266.068 112.405L268.039 112.744L268.342 110.981L266.371 110.642ZM266.068 112.405C266.028 112.635 266.054 112.872 266.142 113.088L267.995 112.334C268.047 112.464 268.063 112.606 268.039 112.744L266.068 112.405ZM266.142 113.088C266.23 113.304 266.377 113.491 266.566 113.628L267.74 112.01C267.854 112.092 267.942 112.205 267.995 112.334L266.142 113.088ZM266.566 113.628C266.754 113.766 266.978 113.847 267.211 113.864L267.353 111.869C267.493 111.879 267.627 111.928 267.74 112.01L266.566 113.628ZM267.211 113.864C267.444 113.88 267.677 113.831 267.883 113.723L266.95 111.953C267.074 111.888 267.214 111.859 267.353 111.869L267.211 113.864ZM267.883 113.723L269.466 112.889L268.534 111.119L266.951 111.953L267.883 113.723ZM268.535 112.889L270.118 113.722L271.049 111.951L269.465 111.119L268.535 112.889ZM270.114 113.72C270.297 113.816 270.5 113.866 270.706 113.865L270.693 111.865C270.818 111.864 270.942 111.895 271.053 111.953L270.114 113.72ZM270.697 113.865C270.879 113.865 271.059 113.826 271.225 113.75L270.385 111.934C270.484 111.888 270.592 111.865 270.702 111.865L270.697 113.865ZM271.225 113.75C271.39 113.673 271.537 113.561 271.654 113.422L270.127 112.131C270.198 112.047 270.286 111.98 270.385 111.934L271.225 113.75ZM271.654 113.422C271.772 113.283 271.858 113.12 271.906 112.944L269.977 112.417C270.005 112.312 270.057 112.214 270.127 112.131L271.654 113.422ZM271.906 112.944C271.954 112.769 271.963 112.585 271.932 112.405L269.961 112.741C269.942 112.633 269.948 112.523 269.977 112.417L271.906 112.944ZM271.932 112.404L271.629 110.641L269.658 110.979L269.961 112.742L271.932 112.404ZM271.342 111.526L272.623 110.276L271.226 108.844L269.945 110.094L271.342 111.526ZM272.622 110.276C272.789 110.114 272.908 109.907 272.964 109.681L271.022 109.201C271.056 109.065 271.127 108.941 271.227 108.844L272.622 110.276ZM272.964 109.681C273.02 109.454 273.011 109.217 272.939 108.995L271.037 109.613C270.994 109.479 270.988 109.337 271.022 109.201L272.964 109.681ZM272.939 108.995C272.867 108.773 272.734 108.576 272.556 108.425L271.267 109.954C271.16 109.864 271.08 109.746 271.037 109.613L272.939 108.995ZM272.556 108.425C272.377 108.275 272.161 108.177 271.93 108.144L271.642 110.123C271.504 110.103 271.374 110.045 271.267 109.954L272.556 108.425ZM270.786 109.134V109.135H272.786V109.134H270.786Z" fill="#BBBDBE" mask="url(#path-17-inside-5_101_29)"/>
<rect x="76.5" y="85.5" width="139" height="99" rx="1.5" fill="white" stroke="#ECECEC"/>
<rect x="50" y="85" width="20" height="20" rx="10" fill="#ECECEC"/>
<rect x="88" y="95" width="50" height="5" rx="2.5" fill="#1D2327" fill-opacity="0.3"/>
<rect x="88" y="112" width="113" height="3" rx="1.5" fill="#1D2327" fill-opacity="0.3"/>
<rect x="88" y="119" width="106" height="3" rx="1.5" fill="#1D2327" fill-opacity="0.3"/>
<rect x="88" y="126" width="116" height="3" rx="1.5" fill="#1D2327" fill-opacity="0.3"/>
<rect x="88" y="133" width="113" height="3" rx="1.5" fill="#1D2327" fill-opacity="0.3"/>
<rect x="88" y="140" width="35" height="3" rx="1.5" fill="#1D2327" fill-opacity="0.3"/>
<rect x="158" y="171" width="20" height="2" rx="1" fill="#1D2327" fill-opacity="0.3"/>
<g clip-path="url(#clip1_101_29)">
<path d="M185.667 175.667H184.333V172.333H185.667" stroke="#1D2327" stroke-linecap="round" stroke-linejoin="round"/>
<path d="M185.667 172.333L187 168.333H187.333C187.599 168.333 187.853 168.439 188.04 168.626C188.228 168.814 188.333 169.068 188.333 169.333V171H190.513C190.657 171 190.798 171.031 190.928 171.09C191.059 171.15 191.175 171.237 191.269 171.345C191.363 171.453 191.432 171.58 191.473 171.718C191.513 171.855 191.524 171.999 191.503 172.141L191.123 174.808C191.089 175.046 190.97 175.264 190.788 175.422C190.606 175.58 190.374 175.667 190.133 175.667H185.667V172.333Z" stroke="#1D2327" stroke-linecap="round" stroke-linejoin="round"/>
</g>
<g clip-path="url(#clip2_101_29)">
<path d="M199.667 168.333H198.333V171.667H199.667" stroke="#1D2327" stroke-linecap="round" stroke-linejoin="round"/>
<path d="M199.667 171.667L201 175.667H201.333C201.599 175.667 201.853 175.561 202.04 175.374C202.228 175.186 202.333 174.932 202.333 174.667V173H204.513C204.657 173 204.798 172.969 204.928 172.91C205.059 172.85 205.175 172.763 205.269 172.655C205.363 172.547 205.432 172.42 205.473 172.282C205.513 172.145 205.524 172.001 205.503 171.859L205.123 169.192C205.089 168.954 204.97 168.736 204.788 168.578C204.606 168.42 204.374 168.333 204.133 168.333H199.667V171.667Z" stroke="#1D2327" stroke-linecap="round" stroke-linejoin="round"/>
</g>
<g clip-path="url(#clip3_101_29)">
<path d="M174.786 96.135L173.016 95.878L172.224 94.274C172.201 94.2347 172.168 94.2021 172.129 94.1794C172.089 94.1567 172.045 94.1448 171.999 94.1448C171.953 94.1448 171.909 94.1567 171.869 94.1794C171.83 94.2021 171.797 94.2347 171.774 94.274L170.984 95.878L169.214 96.135C169.168 96.1417 169.124 96.1612 169.089 96.1913C169.053 96.2214 169.027 96.2608 169.012 96.3052C168.998 96.3496 168.996 96.3971 169.007 96.4424C169.018 96.4877 169.042 96.529 169.076 96.5615L170.357 97.8115L170.054 99.5745C170.046 99.6205 170.051 99.6678 170.068 99.7111C170.086 99.7543 170.115 99.7918 170.153 99.8192C170.191 99.8466 170.236 99.8629 170.282 99.8662C170.329 99.8696 170.375 99.8598 170.417 99.838L172 99.004L173.584 99.8365C173.619 99.8555 173.659 99.8653 173.7 99.865C173.736 99.8651 173.772 99.8572 173.805 99.8419C173.838 99.8266 173.867 99.8043 173.891 99.7765C173.914 99.7486 173.932 99.716 173.941 99.6809C173.951 99.6457 173.953 99.6089 173.947 99.573L173.644 97.81L174.925 96.56C174.958 96.5275 174.982 96.4862 174.993 96.4409C175.004 96.3956 175.002 96.3481 174.988 96.3037C174.973 96.2593 174.947 96.2199 174.911 96.1898C174.876 96.1597 174.832 96.1402 174.786 96.1335V96.135Z" fill="#B64545"/>
</g>
<g clip-path="url(#clip4_101_29)">
<path d="M182.786 96.135L181.016 95.878L180.224 94.274C180.201 94.2347 180.168 94.2021 180.129 94.1794C180.089 94.1567 180.045 94.1448 179.999 94.1448C179.953 94.1448 179.909 94.1567 179.869 94.1794C179.83 94.2021 179.797 94.2347 179.774 94.274L178.984 95.878L177.214 96.135C177.168 96.1417 177.124 96.1612 177.089 96.1913C177.053 96.2214 177.027 96.2608 177.012 96.3052C176.998 96.3496 176.996 96.3971 177.007 96.4424C177.018 96.4877 177.042 96.529 177.076 96.5615L178.357 97.8115L178.054 99.5745C178.046 99.6205 178.051 99.6678 178.068 99.7111C178.086 99.7543 178.115 99.7918 178.153 99.8192C178.191 99.8466 178.236 99.8629 178.282 99.8662C178.329 99.8696 178.375 99.8598 178.417 99.838L180 99.004L181.584 99.8365C181.619 99.8555 181.659 99.8653 181.7 99.865C181.736 99.8651 181.772 99.8572 181.805 99.8419C181.838 99.8266 181.867 99.8043 181.891 99.7765C181.914 99.7486 181.932 99.716 181.941 99.6809C181.951 99.6457 181.953 99.6089 181.947 99.573L181.644 97.81L182.925 96.56C182.958 96.5275 182.982 96.4862 182.993 96.4409C183.004 96.3956 183.002 96.3481 182.988 96.3037C182.973 96.2593 182.947 96.2199 182.911 96.1898C182.876 96.1597 182.832 96.1402 182.786 96.1335V96.135Z" fill="#B64545"/>
</g>
<g clip-path="url(#clip5_101_29)">
<path d="M190.786 96.135L189.016 95.878L188.224 94.274C188.201 94.2347 188.168 94.2021 188.129 94.1794C188.089 94.1567 188.045 94.1448 187.999 94.1448C187.953 94.1448 187.909 94.1567 187.869 94.1794C187.83 94.2021 187.797 94.2347 187.774 94.274L186.984 95.878L185.214 96.135C185.168 96.1417 185.124 96.1612 185.089 96.1913C185.053 96.2214 185.027 96.2608 185.012 96.3052C184.998 96.3496 184.996 96.3971 185.007 96.4424C185.018 96.4877 185.042 96.529 185.076 96.5615L186.357 97.8115L186.054 99.5745C186.046 99.6205 186.051 99.6678 186.068 99.7111C186.086 99.7543 186.115 99.7918 186.153 99.8192C186.191 99.8466 186.236 99.8629 186.282 99.8662C186.329 99.8696 186.375 99.8598 186.417 99.838L188 99.004L189.584 99.8365C189.619 99.8555 189.659 99.8653 189.7 99.865C189.736 99.8651 189.772 99.8572 189.805 99.8419C189.838 99.8266 189.867 99.8043 189.891 99.7765C189.914 99.7486 189.932 99.716 189.941 99.6809C189.951 99.6457 189.953 99.6089 189.947 99.573L189.644 97.81L190.925 96.56C190.958 96.5275 190.982 96.4862 190.993 96.4409C191.004 96.3956 191.002 96.3481 190.988 96.3037C190.973 96.2593 190.947 96.2199 190.911 96.1898C190.876 96.1597 190.832 96.1402 190.786 96.1335V96.135Z" fill="#B64545"/>
</g>
<g clip-path="url(#clip6_101_29)">
<path d="M198.786 96.135L197.016 95.878L196.224 94.274C196.201 94.2347 196.168 94.2021 196.129 94.1794C196.089 94.1567 196.045 94.1448 195.999 94.1448C195.953 94.1448 195.909 94.1567 195.869 94.1794C195.83 94.2021 195.797 94.2347 195.774 94.274L194.984 95.878L193.214 96.135C193.168 96.1417 193.124 96.1612 193.089 96.1913C193.053 96.2214 193.027 96.2608 193.012 96.3052C192.998 96.3496 192.996 96.3971 193.007 96.4424C193.018 96.4877 193.042 96.529 193.076 96.5615L194.357 97.8115L194.054 99.5745C194.046 99.6205 194.051 99.6678 194.068 99.7111C194.086 99.7543 194.115 99.7918 194.153 99.8192C194.191 99.8466 194.236 99.8629 194.282 99.8662C194.329 99.8696 194.375 99.8598 194.417 99.838L196 99.004L197.584 99.8365C197.619 99.8555 197.659 99.8653 197.7 99.865C197.736 99.8651 197.772 99.8572 197.805 99.8419C197.838 99.8266 197.867 99.8043 197.891 99.7765C197.914 99.7486 197.932 99.716 197.941 99.6809C197.951 99.6457 197.953 99.6089 197.947 99.573L197.644 97.81L198.925 96.56C198.958 96.5275 198.982 96.4862 198.993 96.4409C199.004 96.3956 199.002 96.3481 198.988 96.3037C198.973 96.2593 198.947 96.2199 198.911 96.1898C198.876 96.1597 198.832 96.1402 198.786 96.1335V96.135Z" fill="#B64545"/>
</g>
<g clip-path="url(#clip7_101_29)">
<path d="M206.786 96.135L205.016 95.878L204.224 94.274C204.201 94.2347 204.168 94.2021 204.129 94.1794C204.089 94.1567 204.045 94.1448 203.999 94.1448C203.953 94.1448 203.909 94.1567 203.869 94.1794C203.83 94.2021 203.797 94.2347 203.774 94.274L202.984 95.878L201.214 96.135C201.168 96.1417 201.124 96.1612 201.089 96.1913C201.053 96.2214 201.027 96.2608 201.012 96.3052C200.998 96.3496 200.996 96.3971 201.007 96.4424C201.018 96.4877 201.042 96.529 201.076 96.5615L202.357 97.8115L202.054 99.5745C202.046 99.6205 202.051 99.6678 202.068 99.7111C202.086 99.7543 202.115 99.7918 202.153 99.8192C202.191 99.8466 202.236 99.8629 202.282 99.8662C202.329 99.8696 202.375 99.8598 202.417 99.838L204 99.004L205.584 99.8365C205.619 99.8555 205.659 99.8653 205.7 99.865C205.736 99.8651 205.772 99.8572 205.805 99.8419C205.838 99.8266 205.867 99.8043 205.891 99.7765C205.914 99.7486 205.932 99.716 205.941 99.6809C205.951 99.6457 205.953 99.6089 205.947 99.573L205.644 97.81L206.925 96.56C206.958 96.5275 206.982 96.4862 206.993 96.4409C207.004 96.3956 207.002 96.3481 206.988 96.3037C206.973 96.2593 206.947 96.2199 206.911 96.1898C206.876 96.1597 206.832 96.1402 206.786 96.1335V96.135Z" fill="#B64545"/>
</g>
<rect x="1" width="401" height="19" fill="#E0E0E0"/>
</g>
<rect x="2.5" y="0.5" width="399" height="269" rx="7.5" stroke="#E0E0E0"/>
</g>
<defs>
<filter id="filter0_d_101_29" x="0" y="0" width="404" height="274" filterUnits="userSpaceOnUse" color-interpolation-filters="sRGB">
<feFlood flood-opacity="0" result="BackgroundImageFix"/>
<feColorMatrix in="SourceAlpha" type="matrix" values="0 0 0 0 0 0 0 0 0 0 0 0 0 0 0 0 0 0 127 0" result="hardAlpha"/>
<feOffset dy="2"/>
<feGaussianBlur stdDeviation="1"/>
<feComposite in2="hardAlpha" operator="out"/>
<feColorMatrix type="matrix" values="0 0 0 0 0 0 0 0 0 0 0 0 0 0 0 0 0 0 0.04 0"/>
<feBlend mode="normal" in2="BackgroundImageFix" result="effect1_dropShadow_101_29"/>
<feBlend mode="normal" in="SourceGraphic" in2="effect1_dropShadow_101_29" result="shape"/>
</filter>
<clipPath id="clip0_101_29">
<rect x="2" width="400" height="270" rx="8" fill="white"/>
</clipPath>
<clipPath id="clip1_101_29">
<rect width="8" height="8" fill="white" transform="translate(184 168)"/>
</clipPath>
<clipPath id="clip2_101_29">
<rect width="8" height="8" fill="white" transform="matrix(1 0 0 -1 198 176)"/>
</clipPath>
<clipPath id="clip3_101_29">
<rect width="6" height="6" fill="white" transform="translate(169 94)"/>
</clipPath>
<clipPath id="clip4_101_29">
<rect width="6" height="6" fill="white" transform="translate(177 94)"/>
</clipPath>
<clipPath id="clip5_101_29">
<rect width="6" height="6" fill="white" transform="translate(185 94)"/>
</clipPath>
<clipPath id="clip6_101_29">
<rect width="6" height="6" fill="white" transform="translate(193 94)"/>
</clipPath>
<clipPath id="clip7_101_29">
<rect width="6" height="6" fill="white" transform="translate(201 94)"/>
</clipPath>
</defs>
</svg>
