<svg width="404" height="274" viewBox="0 0 404 274" fill="none" xmlns="http://www.w3.org/2000/svg">
<g filter="url(#filter0_d_101_646)">
<g clip-path="url(#clip0_101_646)">
<rect x="2" width="400" height="270" rx="8" fill="#F0F0F1"/>
<rect x="2" width="400" height="270" rx="8" fill="white"/>
<rect x="1" width="401" height="19" fill="#E0E0E0"/>
<rect x="26" y="212" width="136" height="34" rx="4" fill="#0C1317"/>
<path d="M42.5293 233.205C40.1797 233.205 38.7148 231.506 38.7148 228.781V228.77C38.7148 226.039 40.1738 224.34 42.5234 224.34C44.3867 224.34 45.8164 225.518 46.0391 227.199L46.0332 227.229H44.7324V227.211C44.4863 226.174 43.6367 225.5 42.5234 225.5C41.0059 225.5 40.0566 226.76 40.0566 228.77V228.781C40.0566 230.785 41.0059 232.045 42.5293 232.045C43.6484 232.045 44.4863 231.447 44.7266 230.492L44.7383 230.469H46.0391V230.504C45.793 232.127 44.416 233.205 42.5293 233.205ZM49.3672 233.105C48.1543 233.105 47.2578 232.367 47.2578 231.213V231.201C47.2578 230.064 48.1133 229.402 49.6309 229.309L51.3535 229.209V228.646C51.3535 227.949 50.9141 227.562 50.0527 227.562C49.3496 227.562 48.8867 227.82 48.7344 228.271L48.7285 228.295H47.5039L47.5098 228.254C47.6621 227.211 48.6641 226.514 50.1113 226.514C51.7109 226.514 52.6133 227.311 52.6133 228.646V233H51.3535V232.098H51.2539C50.8789 232.742 50.2109 233.105 49.3672 233.105ZM48.5234 231.16C48.5234 231.746 49.0215 232.092 49.707 232.092C50.6562 232.092 51.3535 231.471 51.3535 230.65V230.105L49.8008 230.205C48.9219 230.258 48.5234 230.574 48.5234 231.148V231.16ZM54.4062 233V226.637H55.6777V227.598H55.7715C56 226.924 56.5918 226.525 57.4414 226.525C57.6465 226.525 57.8691 226.555 57.998 226.584V227.756C57.7695 227.709 57.5527 227.68 57.3125 227.68C56.3398 227.68 55.6777 228.277 55.6777 229.197V233H54.4062ZM61.9414 233.041C60.541 233.041 59.9668 232.549 59.9668 231.324V227.639H58.9707V226.637H59.9668V225.031H61.2617V226.637H62.627V227.639H61.2617V231.02C61.2617 231.705 61.5195 231.986 62.1465 231.986C62.3398 231.986 62.4512 231.98 62.627 231.963V232.977C62.4219 233.012 62.1875 233.041 61.9414 233.041ZM70.9531 233.205C68.832 233.205 67.5254 231.945 67.5254 230.088V224.545H68.8379V229.988C68.8379 231.213 69.6055 232.045 70.9531 232.045C72.3008 232.045 73.0625 231.213 73.0625 229.988V224.545H74.375V230.088C74.375 231.945 73.0801 233.205 70.9531 233.205ZM76.3438 235.121V226.637H77.6152V227.639H77.709C78.0781 226.941 78.7754 226.525 79.666 226.525C81.2715 226.525 82.3027 227.809 82.3027 229.812V229.824C82.3027 231.84 81.2832 233.105 79.666 233.105C78.793 233.105 78.0488 232.678 77.709 231.992H77.6152V235.121H76.3438ZM79.3086 232.021C80.3691 232.021 81.0078 231.189 81.0078 229.824V229.812C81.0078 228.441 80.3691 227.615 79.3086 227.615C78.248 227.615 77.5918 228.453 77.5918 229.812V229.824C77.5918 231.184 78.248 232.021 79.3086 232.021ZM86.1523 233.105C84.5527 233.105 83.5156 231.822 83.5156 229.824V229.812C83.5156 227.797 84.5352 226.525 86.1523 226.525C87.0254 226.525 87.7695 226.959 88.1094 227.645H88.209V224.141H89.4746V233H88.209V231.998H88.1094C87.7402 232.695 87.043 233.105 86.1523 233.105ZM86.5156 232.021C87.5762 232.021 88.2266 231.184 88.2266 229.824V229.812C88.2266 228.453 87.5703 227.615 86.5156 227.615C85.4492 227.615 84.8105 228.447 84.8105 229.812V229.824C84.8105 231.189 85.4492 232.021 86.5156 232.021ZM93.1133 233.105C91.9004 233.105 91.0039 232.367 91.0039 231.213V231.201C91.0039 230.064 91.8594 229.402 93.377 229.309L95.0996 229.209V228.646C95.0996 227.949 94.6602 227.562 93.7988 227.562C93.0957 227.562 92.6328 227.82 92.4805 228.271L92.4746 228.295H91.25L91.2559 228.254C91.4082 227.211 92.4102 226.514 93.8574 226.514C95.457 226.514 96.3594 227.311 96.3594 228.646V233H95.0996V232.098H95C94.625 232.742 93.957 233.105 93.1133 233.105ZM92.2695 231.16C92.2695 231.746 92.7676 232.092 93.4531 232.092C94.4023 232.092 95.0996 231.471 95.0996 230.65V230.105L93.5469 230.205C92.668 230.258 92.2695 230.574 92.2695 231.148V231.16ZM100.555 233.041C99.1543 233.041 98.5801 232.549 98.5801 231.324V227.639H97.584V226.637H98.5801V225.031H99.875V226.637H101.24V227.639H99.875V231.02C99.875 231.705 100.133 231.986 100.76 231.986C100.953 231.986 101.064 231.98 101.24 231.963V232.977C101.035 233.012 100.801 233.041 100.555 233.041ZM105.324 233.123C103.461 233.123 102.336 231.852 102.336 229.836V229.83C102.336 227.844 103.484 226.514 105.26 226.514C107.035 226.514 108.125 227.797 108.125 229.707V230.152H103.613C103.637 231.371 104.305 232.08 105.354 232.08C106.168 232.08 106.654 231.676 106.807 231.348L106.83 231.301L108.055 231.295L108.043 231.348C107.832 232.186 106.953 233.123 105.324 233.123ZM105.266 227.557C104.398 227.557 103.742 228.148 103.631 229.244H106.865C106.766 228.107 106.127 227.557 105.266 227.557ZM111.957 233.105C110.357 233.105 109.32 231.822 109.32 229.824V229.812C109.32 227.797 110.34 226.525 111.957 226.525C112.83 226.525 113.574 226.959 113.914 227.645H114.014V224.141H115.279V233H114.014V231.998H113.914C113.545 232.695 112.848 233.105 111.957 233.105ZM112.32 232.021C113.381 232.021 114.031 231.184 114.031 229.824V229.812C114.031 228.453 113.375 227.615 112.32 227.615C111.254 227.615 110.615 228.447 110.615 229.812V229.824C110.615 231.189 111.254 232.021 112.32 232.021ZM118.15 233.088C117.664 233.088 117.289 232.713 117.289 232.238C117.289 231.758 117.664 231.383 118.15 231.383C118.637 231.383 119.006 231.758 119.006 232.238C119.006 232.713 118.637 233.088 118.15 233.088Z" fill="white"/>
<path d="M146.707 224.293C146.316 223.902 145.684 223.902 145.293 224.293L142 227.586L138.707 224.293C138.316 223.902 137.684 223.902 137.293 224.293C136.902 224.684 136.902 225.316 137.293 225.707L140.586 229L137.293 232.293C136.902 232.684 136.902 233.316 137.293 233.707C137.488 233.902 137.744 234 138 234C138.256 234 138.512 233.902 138.707 233.707L142 230.414L145.293 233.707C145.488 233.902 145.744 234 146 234C146.256 234 146.512 233.902 146.707 233.707C147.098 233.316 147.098 232.684 146.707 232.293L143.414 229L146.707 225.707C147.098 225.316 147.098 224.684 146.707 224.293Z" fill="#F7F7F7"/>
<rect x="112" y="115" width="180" height="31" rx="4" fill="#ECECEC"/>
<rect x="147" y="129" width="113" height="3" rx="1.5" fill="#1D2327" fill-opacity="0.3"/>
<g clip-path="url(#clip1_101_646)">
<path d="M274.304 151.134L275.804 153.732" stroke="black" stroke-width="2" stroke-linecap="round" stroke-linejoin="round"/>
<path d="M284.046 143.752L276.268 146.536L273.821 142.298C273.323 141.436 272.272 140.976 271.34 141.329C270.153 141.779 269.696 143.154 270.304 144.206L273.003 148.881L274.304 151.134L272.572 152.134C271.615 152.686 271.287 153.909 271.84 154.866L273.287 157.373C273.969 158.553 275.031 159.466 276.3 159.962L280.304 161.526L291.562 155.026L287.853 145.489C287.263 143.974 285.576 143.204 284.046 143.752Z" fill="white" stroke="black" stroke-width="2" stroke-linecap="round" stroke-linejoin="round"/>
</g>
<path d="M279.512 139.892L281 135" stroke="black" stroke-width="2" stroke-linecap="round"/>
<path d="M271.333 136.098L271 131" stroke="black" stroke-width="2" stroke-linecap="round"/>
<path d="M265.942 140.682L261 139" stroke="black" stroke-width="2" stroke-linecap="round"/>
<path d="M267.045 148L262 149" stroke="black" stroke-width="2" stroke-linecap="round"/>
</g>
<rect x="2.5" y="0.5" width="399" height="269" rx="7.5" stroke="#E0E0E0"/>
</g>
<defs>
<filter id="filter0_d_101_646" x="0" y="0" width="404" height="274" filterUnits="userSpaceOnUse" color-interpolation-filters="sRGB">
<feFlood flood-opacity="0" result="BackgroundImageFix"/>
<feColorMatrix in="SourceAlpha" type="matrix" values="0 0 0 0 0 0 0 0 0 0 0 0 0 0 0 0 0 0 127 0" result="hardAlpha"/>
<feOffset dy="2"/>
<feGaussianBlur stdDeviation="1"/>
<feComposite in2="hardAlpha" operator="out"/>
<feColorMatrix type="matrix" values="0 0 0 0 0 0 0 0 0 0 0 0 0 0 0 0 0 0 0.04 0"/>
<feBlend mode="normal" in2="BackgroundImageFix" result="effect1_dropShadow_101_646"/>
<feBlend mode="normal" in="SourceGraphic" in2="effect1_dropShadow_101_646" result="shape"/>
</filter>
<clipPath id="clip0_101_646">
<rect x="2" width="400" height="270" rx="8" fill="white"/>
</clipPath>
<clipPath id="clip1_101_646">
<rect width="24" height="24" fill="white" transform="translate(263.608 144.608) rotate(-30)"/>
</clipPath>
</defs>
</svg>
