<svg width="404" height="274" viewBox="0 0 404 274" fill="none" xmlns="http://www.w3.org/2000/svg">
<g filter="url(#filter0_d_101_763)">
<g clip-path="url(#clip0_101_763)">
<rect x="2" width="400" height="270" rx="8" fill="#F0F0F1"/>
<rect x="2" width="400" height="270" rx="8" fill="white"/>
<rect x="223" y="63" width="107" height="10" rx="2" fill="#1D2327" fill-opacity="0.3"/>
<rect x="223.5" y="187.5" width="79" height="19" rx="1.5" stroke="#BBBDBE"/>
<rect x="223" y="85" width="50" height="5" rx="2" fill="#1D2327" fill-opacity="0.3"/>
<rect x="223" y="102" width="20" height="3" rx="1.5" fill="#1D2327" fill-opacity="0.3"/>
<rect x="223" y="109" width="24" height="3" rx="1.5" fill="#1D2327" fill-opacity="0.3"/>
<rect x="223.5" y="135.5" width="19" height="19" stroke="black"/>
<rect x="225" y="137" width="16" height="16" fill="black"/>
<rect x="247.5" y="135.5" width="19" height="19" stroke="#ECECEC"/>
<rect x="249" y="137" width="16" height="16" fill="#4E775C"/>
<rect x="105" y="63" width="94" height="94" fill="#ECECEC"/>
<rect x="73" y="63" width="30" height="30" fill="#ECECEC"/>
<rect x="73" y="95" width="30" height="30" fill="#ECECEC"/>
<rect x="73" y="127" width="30" height="30" fill="#ECECEC"/>
<rect x="1" width="401" height="19" fill="#E0E0E0"/>
</g>
<rect x="2.5" y="0.5" width="399" height="269" rx="7.5" stroke="#E0E0E0"/>
</g>
<defs>
<filter id="filter0_d_101_763" x="0" y="0" width="404" height="274" filterUnits="userSpaceOnUse" color-interpolation-filters="sRGB">
<feFlood flood-opacity="0" result="BackgroundImageFix"/>
<feColorMatrix in="SourceAlpha" type="matrix" values="0 0 0 0 0 0 0 0 0 0 0 0 0 0 0 0 0 0 127 0" result="hardAlpha"/>
<feOffset dy="2"/>
<feGaussianBlur stdDeviation="1"/>
<feComposite in2="hardAlpha" operator="out"/>
<feColorMatrix type="matrix" values="0 0 0 0 0 0 0 0 0 0 0 0 0 0 0 0 0 0 0.04 0"/>
<feBlend mode="normal" in2="BackgroundImageFix" result="effect1_dropShadow_101_763"/>
<feBlend mode="normal" in="SourceGraphic" in2="effect1_dropShadow_101_763" result="shape"/>
</filter>
<clipPath id="clip0_101_763">
<rect x="2" width="400" height="270" rx="8" fill="white"/>
</clipPath>
</defs>
</svg>
