<svg width="404" height="274" viewBox="0 0 404 274" fill="none" xmlns="http://www.w3.org/2000/svg">
<g filter="url(#filter0_d_106_1708)">
<g clip-path="url(#clip0_106_1708)">
<rect x="2" width="400" height="270" rx="8" fill="#F0F0F1"/>
<rect x="2" width="400" height="270" rx="8" fill="white"/>
<rect x="73" y="86" width="258" height="2" fill="#ECECEC"/>
<rect x="216" y="86" width="32" height="2" fill="black"/>
<rect x="160" y="78" width="24" height="3" rx="1.5" fill="#ECECEC"/>
<rect x="190" y="78" width="24" height="3" rx="1.5" fill="#ECECEC"/>
<rect x="220" y="78" width="24" height="3" rx="1.5" fill="black" fill-opacity="0.5"/>
<rect x="204" y="120" width="50" height="5" rx="2.5" fill="#1D2327" fill-opacity="0.3"/>
<rect x="204" y="137" width="113" height="3" rx="1.5" fill="#1D2327" fill-opacity="0.3"/>
<rect x="204" y="144" width="106" height="3" rx="1.5" fill="#1D2327" fill-opacity="0.3"/>
<rect x="204" y="151" width="116" height="3" rx="1.5" fill="#1D2327" fill-opacity="0.3"/>
<rect x="204" y="158" width="113" height="3" rx="1.5" fill="#1D2327" fill-opacity="0.3"/>
<rect x="204" y="165" width="35" height="3" rx="1.5" fill="#1D2327" fill-opacity="0.3"/>
<rect x="84" y="107" width="96" height="96" fill="#ECECEC"/>
<path d="M147.362 167.871L138.362 148.371C138.14 147.891 137.683 147.564 137.158 147.509C136.627 147.453 136.118 147.677 135.8 148.1L127.7 158.9L122.9 155.3C122.543 155.033 122.087 154.937 121.655 155.039C121.222 155.141 120.857 155.43 120.658 155.828L114.658 167.828C114.425 168.293 114.451 168.845 114.724 169.287C114.997 169.73 115.48 170 116 170H146C146.512 170 146.989 169.739 147.263 169.308C147.539 168.878 147.577 168.336 147.362 167.871Z" fill="#BBBDBE"/>
<path d="M125 149C127.485 149 129.5 146.985 129.5 144.5C129.5 142.015 127.485 140 125 140C122.515 140 120.5 142.015 120.5 144.5C120.5 146.985 122.515 149 125 149Z" fill="#BBBDBE"/>
<rect x="1" width="401" height="19" fill="#E0E0E0"/>
</g>
<rect x="2.5" y="0.5" width="399" height="269" rx="7.5" stroke="#E0E0E0"/>
</g>
<defs>
<filter id="filter0_d_106_1708" x="0" y="0" width="404" height="274" filterUnits="userSpaceOnUse" color-interpolation-filters="sRGB">
<feFlood flood-opacity="0" result="BackgroundImageFix"/>
<feColorMatrix in="SourceAlpha" type="matrix" values="0 0 0 0 0 0 0 0 0 0 0 0 0 0 0 0 0 0 127 0" result="hardAlpha"/>
<feOffset dy="2"/>
<feGaussianBlur stdDeviation="1"/>
<feComposite in2="hardAlpha" operator="out"/>
<feColorMatrix type="matrix" values="0 0 0 0 0 0 0 0 0 0 0 0 0 0 0 0 0 0 0.04 0"/>
<feBlend mode="normal" in2="BackgroundImageFix" result="effect1_dropShadow_106_1708"/>
<feBlend mode="normal" in="SourceGraphic" in2="effect1_dropShadow_106_1708" result="shape"/>
</filter>
<clipPath id="clip0_106_1708">
<rect x="2" width="400" height="270" rx="8" fill="white"/>
</clipPath>
</defs>
</svg>
