<svg width="404" height="274" viewBox="0 0 404 274" fill="none" xmlns="http://www.w3.org/2000/svg">
<g filter="url(#filter0_d_101_580)">
<g clip-path="url(#clip0_101_580)">
<rect x="2" width="400" height="270" rx="8" fill="#F0F0F1"/>
<rect x="2" width="400" height="270" rx="8" fill="white"/>
<path d="M85.5249 45.6094C85.5249 45.1831 85.8708 44.8375 86.2975 44.8375H126.09C126.517 44.8375 126.863 45.1831 126.863 45.6094V47.925C126.863 48.3513 126.517 48.6969 126.09 48.6969H86.2975C85.8708 48.6969 85.5249 48.3513 85.5249 47.925V45.6094Z" fill="#E0E0E0"/>
<path d="M85.5249 54.1C85.5249 53.6737 85.8708 53.3281 86.2975 53.3281H104.069C104.496 53.3281 104.842 53.6737 104.842 54.1V54.4859C104.842 54.9122 104.496 55.2578 104.069 55.2578H86.2975C85.8708 55.2578 85.5249 54.9122 85.5249 54.4859V54.1Z" fill="#E0E0E0"/>
<path d="M85.5249 60.468C85.5249 60.1482 85.7843 59.8891 86.1044 59.8891H92.672C92.9921 59.8891 93.2515 60.1482 93.2515 60.468C93.2515 60.7877 92.9921 61.0469 92.672 61.0469H86.1044C85.7843 61.0469 85.5249 60.7877 85.5249 60.468Z" fill="#E0E0E0"/>
<path d="M85.5249 63.1695C85.5249 62.8498 85.7843 62.5906 86.1044 62.5906H94.2174C94.5374 62.5906 94.7969 62.8498 94.7969 63.1695C94.7969 63.4893 94.5374 63.7484 94.2174 63.7484H86.1044C85.7843 63.7484 85.5249 63.4893 85.5249 63.1695Z" fill="#E0E0E0"/>
<path d="M86.2975 73.3969H92.4789V79.5719H86.2975V73.3969Z" fill="#BBBDBE"/>
<path d="M95.5695 73.3969H101.751V79.5719H95.5695V73.3969Z" fill="#BBBDBE"/>
<path d="M39.9375 44.8375H77.0255V81.8875H39.9375V44.8375Z" fill="#ECECEC"/>
<path d="M64.4164 68.3301L60.9394 60.8043C60.8536 60.6191 60.6769 60.4929 60.474 60.4714C60.2689 60.45 60.0724 60.5363 59.9496 60.6995L56.8203 64.8677L54.9659 63.4783C54.828 63.3752 54.6518 63.3382 54.4849 63.3776C54.3174 63.4169 54.1766 63.5286 54.0995 63.6821L51.7815 68.3133C51.6917 68.4928 51.7016 68.7058 51.807 68.8766C51.9125 69.0474 52.0991 69.1516 52.3002 69.1516H63.8902C64.0878 69.1516 64.2721 69.0508 64.3781 68.8847C64.4848 68.7185 64.4992 68.5096 64.4164 68.3301Z" fill="#BBBDBE"/>
<path d="M55.7772 61.0469C56.7373 61.0469 57.5157 60.2693 57.5157 59.3102C57.5157 58.351 56.7373 57.5734 55.7772 57.5734C54.817 57.5734 54.0387 58.351 54.0387 59.3102C54.0387 60.2693 54.817 61.0469 55.7772 61.0469Z" fill="#BBBDBE"/>
<path d="M39.9249 95.4844C39.9249 95.0581 40.2708 94.7125 40.6975 94.7125H80.4899C80.9166 94.7125 81.2625 95.0581 81.2625 95.4844V97.8C81.2625 98.2263 80.9166 98.5719 80.4899 98.5719H40.6975C40.2708 98.5719 39.9249 98.2263 39.9249 97.8V95.4844Z" fill="#E0E0E0"/>
<path d="M39.9249 103.975C39.9249 103.549 40.2708 103.203 40.6975 103.203H58.4689C58.8956 103.203 59.2415 103.549 59.2415 103.975V104.361C59.2415 104.787 58.8956 105.133 58.4689 105.133H40.6975C40.2708 105.133 39.9249 104.787 39.9249 104.361V103.975Z" fill="#E0E0E0"/>
<path d="M39.9249 110.343C39.9249 110.023 40.1843 109.764 40.5044 109.764H47.072C47.3921 109.764 47.6515 110.023 47.6515 110.343C47.6515 110.663 47.3921 110.922 47.072 110.922H40.5044C40.1843 110.922 39.9249 110.663 39.9249 110.343Z" fill="#E0E0E0"/>
<path d="M39.9249 113.045C39.9249 112.725 40.1843 112.466 40.5044 112.466H48.6174C48.9374 112.466 49.1969 112.725 49.1969 113.045C49.1969 113.364 48.9374 113.623 48.6174 113.623H40.5044C40.1843 113.623 39.9249 113.364 39.9249 113.045Z" fill="#E0E0E0"/>
<rect x="32.6" y="37.5" width="101.6" height="91.625" stroke="#E0E0E0"/>
<rect x="76.275" y="138.887" width="14.25" height="2.1375" rx="1.06875" fill="#E0E0E0"/>
<path d="M204.125 45.6094C204.125 45.1831 204.471 44.8375 204.898 44.8375H244.69C245.117 44.8375 245.463 45.1831 245.463 45.6094V47.925C245.463 48.3513 245.117 48.6969 244.69 48.6969H204.898C204.471 48.6969 204.125 48.3513 204.125 47.925V45.6094Z" fill="#E0E0E0"/>
<path d="M204.125 54.1C204.125 53.6737 204.471 53.3281 204.898 53.3281H222.669C223.096 53.3281 223.442 53.6737 223.442 54.1V54.4859C223.442 54.9122 223.096 55.2578 222.669 55.2578H204.898C204.471 55.2578 204.125 54.9122 204.125 54.4859V54.1Z" fill="#E0E0E0"/>
<path d="M204.125 60.468C204.125 60.1482 204.384 59.8891 204.704 59.8891H211.272C211.592 59.8891 211.852 60.1482 211.852 60.468C211.852 60.7877 211.592 61.0469 211.272 61.0469H204.704C204.384 61.0469 204.125 60.7877 204.125 60.468Z" fill="#E0E0E0"/>
<path d="M204.125 63.1695C204.125 62.8498 204.384 62.5906 204.704 62.5906H212.817C213.137 62.5906 213.397 62.8498 213.397 63.1695C213.397 63.4893 213.137 63.7484 212.817 63.7484H204.704C204.384 63.7484 204.125 63.4893 204.125 63.1695Z" fill="#E0E0E0"/>
<path d="M204.898 73.3969H211.079V79.5719H204.898V73.3969Z" fill="#BBBDBE"/>
<path d="M214.17 73.3969H220.351V79.5719H214.17V73.3969Z" fill="#BBBDBE"/>
<path d="M158.538 44.8375H195.626V81.8875H158.538V44.8375Z" fill="#ECECEC"/>
<path d="M183.016 68.3301L179.539 60.8043C179.454 60.6191 179.277 60.4929 179.074 60.4714C178.869 60.45 178.672 60.5363 178.55 60.6995L175.42 64.8677L173.566 63.4783C173.428 63.3752 173.252 63.3382 173.085 63.3776C172.917 63.4169 172.777 63.5286 172.7 63.6821L170.382 68.3133C170.292 68.4928 170.302 68.7058 170.407 68.8766C170.512 69.0474 170.699 69.1516 170.9 69.1516H182.49C182.688 69.1516 182.872 69.0508 182.978 68.8847C183.085 68.7185 183.099 68.5096 183.016 68.3301Z" fill="#BBBDBE"/>
<path d="M174.377 61.0469C175.337 61.0469 176.116 60.2693 176.116 59.3102C176.116 58.351 175.337 57.5734 174.377 57.5734C173.417 57.5734 172.639 58.351 172.639 59.3102C172.639 60.2693 173.417 61.0469 174.377 61.0469Z" fill="#BBBDBE"/>
<path d="M158.538 84.7375H195.626V121.787H158.538V84.7375Z" fill="#ECECEC"/>
<path d="M183.016 108.23L179.539 100.704C179.454 100.519 179.277 100.393 179.074 100.371C178.869 100.35 178.672 100.436 178.55 100.6L175.42 104.768L173.566 103.378C173.428 103.275 173.252 103.238 173.085 103.278C172.917 103.317 172.777 103.429 172.7 103.582L170.382 108.213C170.292 108.393 170.302 108.606 170.407 108.777C170.512 108.947 170.699 109.052 170.9 109.052H182.49C182.688 109.052 182.872 108.951 182.978 108.785C183.085 108.619 183.099 108.41 183.016 108.23Z" fill="#BBBDBE"/>
<path d="M174.377 100.947C175.337 100.947 176.116 100.169 176.116 99.2102C176.116 98.251 175.337 97.4734 174.377 97.4734C173.417 97.4734 172.639 98.251 172.639 99.2102C172.639 100.169 173.417 100.947 174.377 100.947Z" fill="#BBBDBE"/>
<rect x="151.2" y="37.5" width="101.6" height="91.625" stroke="#E0E0E0"/>
<rect x="194.875" y="138.887" width="14.25" height="2.1375" rx="1.06875" fill="#E0E0E0"/>
<path d="M277.118 45.6094C277.118 45.1831 277.464 44.8375 277.891 44.8375H317.683C318.11 44.8375 318.456 45.1831 318.456 45.6094V47.925C318.456 48.3513 318.11 48.6969 317.683 48.6969H277.891C277.464 48.6969 277.118 48.3513 277.118 47.925V45.6094Z" fill="#E0E0E0"/>
<path d="M277.118 54.1C277.118 53.6737 277.464 53.3281 277.891 53.3281H295.662C296.089 53.3281 296.435 53.6737 296.435 54.1V54.4859C296.435 54.9122 296.089 55.2578 295.662 55.2578H277.891C277.464 55.2578 277.118 54.9122 277.118 54.4859V54.1Z" fill="#E0E0E0"/>
<path d="M277.118 60.468C277.118 60.1482 277.377 59.8891 277.697 59.8891H284.265C284.585 59.8891 284.845 60.1482 284.845 60.468C284.845 60.7877 284.585 61.0469 284.265 61.0469H277.697C277.377 61.0469 277.118 60.7877 277.118 60.468Z" fill="#E0E0E0"/>
<path d="M277.118 63.1695C277.118 62.8498 277.377 62.5906 277.697 62.5906H285.81C286.13 62.5906 286.39 62.8498 286.39 63.1695C286.39 63.4893 286.13 63.7484 285.81 63.7484H277.697C277.377 63.7484 277.118 63.4893 277.118 63.1695Z" fill="#E0E0E0"/>
<path d="M277.891 73.3969H284.072V79.5719H277.891V73.3969Z" fill="#BBBDBE"/>
<path d="M287.163 73.3969H293.344V79.5719H287.163V73.3969Z" fill="#BBBDBE"/>
<path d="M327 44.8375H364.088V81.8875H327V44.8375Z" fill="#ECECEC"/>
<path d="M351.479 68.3301L348.002 60.8043C347.916 60.6191 347.739 60.4929 347.537 60.4714C347.331 60.45 347.135 60.5363 347.012 60.6995L343.883 64.8677L342.028 63.4783C341.89 63.3752 341.714 63.3382 341.547 63.3776C341.38 63.4169 341.239 63.5286 341.162 63.6821L338.844 68.3133C338.754 68.4928 338.764 68.7058 338.87 68.8766C338.975 69.0474 339.162 69.1516 339.363 69.1516H350.953C351.15 69.1516 351.335 69.0508 351.441 68.8847C351.547 68.7185 351.562 68.5096 351.479 68.3301Z" fill="#BBBDBE"/>
<path d="M342.84 61.0469C343.8 61.0469 344.578 60.2693 344.578 59.3102C344.578 58.351 343.8 57.5734 342.84 57.5734C341.88 57.5734 341.101 58.351 341.101 59.3102C341.101 60.2693 341.88 61.0469 342.84 61.0469Z" fill="#BBBDBE"/>
<path d="M277.125 95.4844C277.125 95.0581 277.471 94.7125 277.897 94.7125H317.69C318.117 94.7125 318.462 95.0581 318.462 95.4844V97.8C318.462 98.2263 318.117 98.5719 317.69 98.5719H277.897C277.471 98.5719 277.125 98.2263 277.125 97.8V95.4844Z" fill="#E0E0E0"/>
<path d="M277.125 103.975C277.125 103.549 277.471 103.203 277.897 103.203H295.669C296.096 103.203 296.441 103.549 296.441 103.975V104.361C296.441 104.787 296.096 105.133 295.669 105.133H277.897C277.471 105.133 277.125 104.787 277.125 104.361V103.975Z" fill="#E0E0E0"/>
<path d="M277.125 110.343C277.125 110.023 277.384 109.764 277.704 109.764H284.272C284.592 109.764 284.851 110.023 284.851 110.343C284.851 110.663 284.592 110.922 284.272 110.922H277.704C277.384 110.922 277.125 110.663 277.125 110.343Z" fill="#E0E0E0"/>
<path d="M277.125 113.045C277.125 112.725 277.384 112.466 277.704 112.466H285.817C286.137 112.466 286.397 112.725 286.397 113.045C286.397 113.364 286.137 113.623 285.817 113.623H277.704C277.384 113.623 277.125 113.364 277.125 113.045Z" fill="#E0E0E0"/>
<rect x="269.8" y="37.5" width="101.6" height="91.625" stroke="#E0E0E0"/>
<rect x="313.475" y="138.887" width="14.25" height="2.1375" rx="1.06875" fill="#E0E0E0"/>
<path d="M39.6623 161.609C39.6623 161.183 40.0083 160.837 40.435 160.837H80.2273C80.6541 160.837 81 161.183 81 161.609V163.925C81 164.351 80.6541 164.697 80.2273 164.697H40.435C40.0083 164.697 39.6623 164.351 39.6623 163.925V161.609Z" fill="#E0E0E0"/>
<path d="M39.6623 170.1C39.6623 169.674 40.0083 169.328 40.435 169.328H58.2063C58.6331 169.328 58.979 169.674 58.979 170.1V170.486C58.979 170.912 58.6331 171.258 58.2063 171.258H40.435C40.0083 171.258 39.6623 170.912 39.6623 170.486V170.1Z" fill="#E0E0E0"/>
<path d="M39.6623 176.468C39.6623 176.148 39.9218 175.889 40.2418 175.889H46.8095C47.1295 175.889 47.389 176.148 47.389 176.468C47.389 176.788 47.1295 177.047 46.8095 177.047H40.2418C39.9218 177.047 39.6623 176.788 39.6623 176.468Z" fill="#E0E0E0"/>
<path d="M39.6623 179.17C39.6623 178.85 39.9218 178.591 40.2418 178.591H48.3548C48.6749 178.591 48.9343 178.85 48.9343 179.17C48.9343 179.489 48.6749 179.748 48.3548 179.748H40.2418C39.9218 179.748 39.6623 179.489 39.6623 179.17Z" fill="#E0E0E0"/>
<path d="M40.435 189.397H46.6163V195.572H40.435V189.397Z" fill="#BBBDBE"/>
<path d="M49.707 189.397H55.8883V195.572H49.707V189.397Z" fill="#BBBDBE"/>
<path d="M89.412 160.837H126.5V197.887H89.412V160.837Z" fill="#ECECEC"/>
<path d="M113.891 184.33L110.414 176.804C110.328 176.619 110.151 176.493 109.949 176.471C109.743 176.45 109.547 176.536 109.424 176.7L106.295 180.868L104.44 179.478C104.302 179.375 104.126 179.338 103.959 179.378C103.792 179.417 103.651 179.529 103.574 179.682L101.256 184.313C101.166 184.493 101.176 184.706 101.282 184.877C101.387 185.047 101.574 185.152 101.775 185.152H113.365C113.562 185.152 113.747 185.051 113.853 184.885C113.959 184.719 113.974 184.51 113.891 184.33Z" fill="#BBBDBE"/>
<path d="M105.252 177.047C106.212 177.047 106.99 176.269 106.99 175.31C106.99 174.351 106.212 173.573 105.252 173.573C104.292 173.573 103.513 174.351 103.513 175.31C103.513 176.269 104.292 177.047 105.252 177.047Z" fill="#BBBDBE"/>
<path d="M89.412 200.737H126.5V237.787H89.412V200.737Z" fill="#ECECEC"/>
<path d="M113.891 224.23L110.414 216.704C110.328 216.519 110.151 216.393 109.949 216.371C109.743 216.35 109.547 216.436 109.424 216.6L106.295 220.768L104.44 219.378C104.302 219.275 104.126 219.238 103.959 219.278C103.792 219.317 103.651 219.429 103.574 219.582L101.256 224.213C101.166 224.393 101.176 224.606 101.282 224.777C101.387 224.947 101.574 225.052 101.775 225.052H113.365C113.562 225.052 113.747 224.951 113.853 224.785C113.959 224.619 113.974 224.41 113.891 224.23Z" fill="#BBBDBE"/>
<path d="M105.252 216.947C106.212 216.947 106.99 216.169 106.99 215.21C106.99 214.251 106.212 213.473 105.252 213.473C104.292 213.473 103.513 214.251 103.513 215.21C103.513 216.169 104.292 216.947 105.252 216.947Z" fill="#BBBDBE"/>
<rect x="32.5" y="153.5" width="101.6" height="91.625" stroke="#E0E0E0"/>
<rect x="76.175" y="254.888" width="14.25" height="2.1375" rx="1.06875" fill="#E0E0E0"/>
<path d="M182 199.772C182 199.346 182.346 199 182.773 199H220.544C220.971 199 221.317 199.346 221.317 199.772V200.158C221.317 200.584 220.971 200.93 220.544 200.93H182.773C182.346 200.93 182 200.584 182 200.158V199.772Z" fill="black"/>
<path d="M201.772 219.317C201.346 219.317 201 218.971 201 218.544L201 180.773C201 180.346 201.346 180 201.772 180L202.158 180C202.584 180 202.93 180.346 202.93 180.773L202.93 218.544C202.93 218.971 202.584 219.317 202.158 219.317L201.772 219.317Z" fill="black"/>
<rect x="151.1" y="153.5" width="101.6" height="91.625" stroke="black"/>
<rect x="194.775" y="254.888" width="14.25" height="2.1375" rx="1.06875" fill="black"/>
<rect x="1" width="401" height="19" fill="#E0E0E0"/>
</g>
<rect x="2.5" y="0.5" width="399" height="269" rx="7.5" stroke="#E0E0E0"/>
</g>
<defs>
<filter id="filter0_d_101_580" x="0" y="0" width="404" height="274" filterUnits="userSpaceOnUse" color-interpolation-filters="sRGB">
<feFlood flood-opacity="0" result="BackgroundImageFix"/>
<feColorMatrix in="SourceAlpha" type="matrix" values="0 0 0 0 0 0 0 0 0 0 0 0 0 0 0 0 0 0 127 0" result="hardAlpha"/>
<feOffset dy="2"/>
<feGaussianBlur stdDeviation="1"/>
<feComposite in2="hardAlpha" operator="out"/>
<feColorMatrix type="matrix" values="0 0 0 0 0 0 0 0 0 0 0 0 0 0 0 0 0 0 0.04 0"/>
<feBlend mode="normal" in2="BackgroundImageFix" result="effect1_dropShadow_101_580"/>
<feBlend mode="normal" in="SourceGraphic" in2="effect1_dropShadow_101_580" result="shape"/>
</filter>
<clipPath id="clip0_101_580">
<rect x="2" width="400" height="270" rx="8" fill="white"/>
</clipPath>
</defs>
</svg>
