<svg width="404" height="274" viewBox="0 0 404 274" fill="none" xmlns="http://www.w3.org/2000/svg">
<g filter="url(#filter0_d_101_785)">
<g clip-path="url(#clip0_101_785)">
<rect x="2" width="400" height="270" rx="8" fill="#F0F0F1"/>
<rect x="2" width="400" height="270" rx="8" fill="white"/>
<path d="M87 52.3056C87 49.9277 88.9277 48 91.3056 48H313.042C315.42 48 317.347 49.9277 317.347 52.3056V65.2222C317.347 67.6001 315.42 69.5278 313.042 69.5278H91.3056C88.9277 69.5278 87 67.6001 87 65.2222V52.3056Z" fill="#E0E0E0"/>
<path d="M88.2373 106V96.1357H94.3965V97.4551H89.7686V100.579H94.0068V101.871H89.7686V106H88.2373ZM96.2148 106V98.5762H97.6982V99.6973H97.8076C98.0742 98.9111 98.7646 98.4463 99.7559 98.4463C99.9951 98.4463 100.255 98.4805 100.405 98.5146V99.8818C100.139 99.8271 99.8857 99.793 99.6055 99.793C98.4707 99.793 97.6982 100.49 97.6982 101.563V106H96.2148ZM104.773 106.144C102.593 106.144 101.26 104.688 101.26 102.295V102.281C101.26 99.8955 102.6 98.4326 104.773 98.4326C106.94 98.4326 108.28 99.8887 108.28 102.281V102.295C108.28 104.688 106.947 106.144 104.773 106.144ZM104.773 104.906C106.045 104.906 106.77 103.936 106.77 102.295V102.281C106.77 100.634 106.045 99.6699 104.773 99.6699C103.495 99.6699 102.777 100.634 102.777 102.281V102.295C102.777 103.942 103.495 104.906 104.773 104.906ZM110.051 106V98.5762H111.534V99.7178H111.644C111.972 98.9043 112.696 98.4326 113.667 98.4326C114.679 98.4326 115.396 98.959 115.725 99.7588H115.841C116.217 98.959 117.071 98.4326 118.104 98.4326C119.601 98.4326 120.476 99.335 120.476 100.88V106H118.999V101.235C118.999 100.21 118.534 99.7041 117.563 99.7041C116.62 99.7041 115.998 100.408 115.998 101.304V106H114.521V101.085C114.521 100.237 113.968 99.7041 113.093 99.7041C112.197 99.7041 111.534 100.47 111.534 101.44V106H110.051Z" fill="black"/>
<path d="M129.791 108.475V95.6641H133.052V96.792H131.22V107.347H133.052V108.475H129.791ZM134.829 106V96.1357H138.671C140.605 96.1357 141.945 97.4346 141.945 99.3691V99.3828C141.945 101.311 140.605 102.63 138.671 102.63H136.36V106H134.829ZM138.288 97.4277H136.36V101.345H138.288C139.614 101.345 140.387 100.627 140.387 99.3896V99.376C140.387 98.1455 139.614 97.4277 138.288 97.4277ZM143.921 106V96.1357H147.811C149.834 96.1357 151.092 97.3115 151.092 99.1436V99.1572C151.092 100.483 150.381 101.563 149.178 101.967L151.393 106H149.622L147.612 102.206H145.452V106H143.921ZM145.452 100.962H147.66C148.836 100.962 149.52 100.319 149.52 99.1982V99.1846C149.52 98.0908 148.795 97.4209 147.612 97.4209H145.452V100.962ZM153.272 106V96.1357H154.804V106H153.272ZM161.325 106.239C158.584 106.239 156.875 104.257 156.875 101.078V101.064C156.875 97.8789 158.577 95.8965 161.318 95.8965C163.492 95.8965 165.16 97.2705 165.42 99.2324L165.413 99.2666H163.896V99.2461C163.608 98.0361 162.617 97.25 161.318 97.25C159.548 97.25 158.44 98.7197 158.44 101.064V101.078C158.44 103.416 159.548 104.886 161.325 104.886C162.631 104.886 163.608 104.188 163.889 103.074L163.902 103.047H165.42V103.088C165.133 104.981 163.526 106.239 161.325 106.239ZM167.437 106V96.1357H173.698V97.4551H168.968V100.34H173.445V101.611H168.968V104.681H173.698V106H167.437ZM178.47 108.475H175.202V107.347H177.041V96.792H175.202V95.6641H178.47V108.475Z" fill="#BBBDBE"/>
<path d="M188.237 106V96.1357H192.202C194.055 96.1357 195.169 97.0791 195.169 98.5898V98.6035C195.169 99.6289 194.41 100.552 193.439 100.716V100.832C194.772 100.976 195.661 101.919 195.661 103.204V103.218C195.661 104.947 194.396 106 192.291 106H188.237ZM191.847 97.3867H189.769V100.333H191.587C192.94 100.333 193.645 99.8271 193.645 98.8701V98.8564C193.645 97.9268 192.981 97.3867 191.847 97.3867ZM191.895 101.502H189.769V104.749H191.983C193.364 104.749 194.096 104.182 194.096 103.122V103.108C194.096 102.049 193.337 101.502 191.895 101.502ZM199.496 106.123C198.081 106.123 197.035 105.262 197.035 103.915V103.901C197.035 102.575 198.033 101.803 199.804 101.693L201.813 101.577V100.921C201.813 100.107 201.301 99.6562 200.296 99.6562C199.476 99.6562 198.936 99.957 198.758 100.483L198.751 100.511H197.322L197.329 100.463C197.507 99.2461 198.676 98.4326 200.364 98.4326C202.23 98.4326 203.283 99.3623 203.283 100.921V106H201.813V104.947H201.697C201.26 105.699 200.48 106.123 199.496 106.123ZM198.512 103.854C198.512 104.537 199.093 104.94 199.893 104.94C201 104.94 201.813 104.216 201.813 103.259V102.623L200.002 102.739C198.977 102.801 198.512 103.17 198.512 103.84V103.854ZM208.075 106.144C206.284 106.144 205.149 105.303 205.006 104.059V104.052H206.489L206.496 104.059C206.681 104.619 207.221 104.995 208.103 104.995C209.019 104.995 209.654 104.578 209.654 103.97V103.956C209.654 103.491 209.306 103.177 208.444 102.979L207.262 102.705C205.86 102.384 205.211 101.748 205.211 100.661V100.654C205.211 99.3623 206.414 98.4326 208.096 98.4326C209.791 98.4326 210.878 99.2803 211.008 100.49V100.497H209.593V100.483C209.449 99.9639 208.923 99.5742 208.089 99.5742C207.275 99.5742 206.688 99.9775 206.688 100.572V100.586C206.688 101.051 207.029 101.338 207.863 101.536L209.039 101.803C210.468 102.138 211.151 102.746 211.151 103.819V103.833C211.151 105.207 209.839 106.144 208.075 106.144ZM216.039 106.144C213.865 106.144 212.553 104.66 212.553 102.309V102.302C212.553 99.9844 213.893 98.4326 215.964 98.4326C218.035 98.4326 219.307 99.9297 219.307 102.158V102.678H214.043C214.07 104.1 214.85 104.927 216.073 104.927C217.023 104.927 217.591 104.455 217.769 104.072L217.796 104.018L219.225 104.011L219.211 104.072C218.965 105.05 217.939 106.144 216.039 106.144ZM215.971 99.6494C214.959 99.6494 214.193 100.34 214.063 101.618H217.837C217.721 100.292 216.976 99.6494 215.971 99.6494ZM225.069 106V96.1357H228.911C230.846 96.1357 232.186 97.4346 232.186 99.3691V99.3828C232.186 101.311 230.846 102.63 228.911 102.63H226.601V106H225.069ZM228.528 97.4277H226.601V101.345H228.528C229.854 101.345 230.627 100.627 230.627 99.3896V99.376C230.627 98.1455 229.854 97.4277 228.528 97.4277ZM233.99 106V98.5762H235.474V99.6973H235.583C235.85 98.9111 236.54 98.4463 237.531 98.4463C237.771 98.4463 238.03 98.4805 238.181 98.5146V99.8818C237.914 99.8271 237.661 99.793 237.381 99.793C236.246 99.793 235.474 100.49 235.474 101.563V106H233.99ZM240.368 97.25C239.855 97.25 239.438 96.833 239.438 96.3271C239.438 95.8145 239.855 95.3975 240.368 95.3975C240.874 95.3975 241.298 95.8145 241.298 96.3271C241.298 96.833 240.874 97.25 240.368 97.25ZM239.623 106V98.5762H241.1V106H239.623ZM246.384 106.144C244.217 106.144 242.891 104.667 242.891 102.268V102.254C242.891 99.9023 244.21 98.4326 246.377 98.4326C248.243 98.4326 249.357 99.4854 249.562 100.928V100.962L248.141 100.969L248.134 100.948C247.97 100.217 247.368 99.6699 246.384 99.6699C245.146 99.6699 244.401 100.654 244.401 102.254V102.268C244.401 103.908 245.16 104.906 246.384 104.906C247.313 104.906 247.888 104.482 248.127 103.683L248.141 103.648H249.562L249.549 103.71C249.282 105.152 248.223 106.144 246.384 106.144ZM254.361 106.144C252.188 106.144 250.875 104.66 250.875 102.309V102.302C250.875 99.9844 252.215 98.4326 254.286 98.4326C256.357 98.4326 257.629 99.9297 257.629 102.158V102.678H252.365C252.393 104.1 253.172 104.927 254.396 104.927C255.346 104.927 255.913 104.455 256.091 104.072L256.118 104.018L257.547 104.011L257.533 104.072C257.287 105.05 256.262 106.144 254.361 106.144ZM254.293 99.6494C253.281 99.6494 252.516 100.34 252.386 101.618H256.159C256.043 100.292 255.298 99.6494 254.293 99.6494Z" fill="black"/>
<rect x="87.5" y="255.444" width="171.222" height="42.0556" rx="1.5" stroke="#E0E0E0"/>
<path d="M87 135.188C87 133.404 88.4457 131.958 90.2292 131.958H126.826C128.61 131.958 130.056 133.404 130.056 135.188C130.056 136.971 128.61 138.417 126.826 138.417H90.2292C88.4457 138.417 87 136.971 87 135.188Z" fill="#E0E0E0"/>
<path d="M87 150.257C87 148.474 88.4457 147.028 90.2292 147.028H135.438C137.221 147.028 138.667 148.474 138.667 150.257C138.667 152.04 137.221 153.486 135.438 153.486H90.2292C88.4457 153.486 87 152.04 87 150.257Z" fill="#E0E0E0"/>
<rect x="88" y="184" width="41" height="41" stroke="#BBBDBE" stroke-width="2"/>
<rect x="91" y="187" width="35" height="35" fill="#BBBDBE"/>
<rect x="139.667" y="184" width="41" height="41" stroke="#ECECEC" stroke-width="2"/>
<rect x="143" y="187" width="35" height="35" fill="#BBBDBE"/>
<rect x="1" width="401" height="19" fill="#E0E0E0"/>
</g>
<rect x="2.5" y="0.5" width="399" height="269" rx="7.5" stroke="#E0E0E0"/>
</g>
<defs>
<filter id="filter0_d_101_785" x="0" y="0" width="404" height="274" filterUnits="userSpaceOnUse" color-interpolation-filters="sRGB">
<feFlood flood-opacity="0" result="BackgroundImageFix"/>
<feColorMatrix in="SourceAlpha" type="matrix" values="0 0 0 0 0 0 0 0 0 0 0 0 0 0 0 0 0 0 127 0" result="hardAlpha"/>
<feOffset dy="2"/>
<feGaussianBlur stdDeviation="1"/>
<feComposite in2="hardAlpha" operator="out"/>
<feColorMatrix type="matrix" values="0 0 0 0 0 0 0 0 0 0 0 0 0 0 0 0 0 0 0.04 0"/>
<feBlend mode="normal" in2="BackgroundImageFix" result="effect1_dropShadow_101_785"/>
<feBlend mode="normal" in="SourceGraphic" in2="effect1_dropShadow_101_785" result="shape"/>
</filter>
<clipPath id="clip0_101_785">
<rect x="2" width="400" height="270" rx="8" fill="white"/>
</clipPath>
</defs>
</svg>
